<svg width="55" height="55" viewBox="0 0 55 55" fill="none" xmlns="http://www.w3.org/2000/svg">
<circle cx="27.5" cy="27.5" r="27.5" fill="white"/>
<circle cx="27.5" cy="27.5" r="26.9608" stroke="#30333F" stroke-opacity="0.5" stroke-width="1.07843"/>
<path d="M30.7417 14H19C17.3431 14 16 15.3431 16 17V38.5218C16 40.1787 17.3431 41.5218 19 41.5218H35C36.6569 41.5218 38 40.1787 38 38.5218V21.289C38 20.4971 37.6869 19.7373 37.1289 19.1754L32.8706 14.8863C32.3074 14.319 31.541 14 30.7417 14Z" stroke="#30333F" stroke-linecap="round"/>
<path d="M31.6851 14V17.3149C31.6851 18.9717 33.0282 20.3149 34.6851 20.3149H38" stroke="#30333F" stroke-linejoin="round"/>
<path fill-rule="evenodd" clip-rule="evenodd" d="M33.4384 24.7836C33.4384 28.4595 30.4585 31.4394 26.7827 31.4394C23.1068 31.4394 20.127 28.4595 20.127 24.7836C20.127 21.1078 23.1068 18.1279 26.7827 18.1279C30.4585 18.1279 33.4384 21.1078 33.4384 24.7836ZM24.7763 23.2255C25.2266 22.0047 26.9531 22.0047 27.4034 23.2255L29.0643 27.7289C29.1408 27.9362 29.0347 28.1662 28.8275 28.2426C28.6202 28.3191 28.3902 28.213 28.3138 28.0057L27.5948 26.0565C27.5621 26.0651 27.5278 26.0697 27.4924 26.0697H24.697C24.6584 26.0697 24.6211 26.0643 24.5858 26.0541L23.866 28.0057C23.7895 28.213 23.5595 28.3191 23.3523 28.2426C23.145 28.1662 23.0389 27.9362 23.1154 27.7289L24.7763 23.2255ZM24.8751 25.2697H27.3047L26.6528 23.5023C26.4598 22.9791 25.7199 22.9791 25.5269 23.5023L24.8751 25.2697ZM29.7109 21.8974C29.9318 21.8974 30.1109 22.0765 30.1109 22.2974V22.9203H30.7343C30.9553 22.9203 31.1343 23.0994 31.1343 23.3203C31.1343 23.5412 30.9553 23.7203 30.7343 23.7203H30.1109V24.3437C30.1109 24.5646 29.9318 24.7437 29.7109 24.7437C29.49 24.7437 29.3109 24.5646 29.3109 24.3437V23.7203H28.688C28.4671 23.7203 28.288 23.5412 28.288 23.3203C28.288 23.0994 28.4671 22.9203 28.688 22.9203H29.3109V22.2974C29.3109 22.0765 29.49 21.8974 29.7109 21.8974Z" fill="#FF9975"/>
<path d="M26.783 33.8159H34.7098" stroke="#30333F" stroke-linecap="round"/>
<path d="M19.2922 33.8159H20.7035" stroke="#30333F" stroke-linecap="round"/>
<path d="M23.1736 33.8159H24.5848" stroke="#30333F" stroke-linecap="round"/>
<path d="M19.2922 37.1636H20.7035" stroke="#30333F" stroke-linecap="round"/>
<path d="M23.1736 37.1636H24.5848" stroke="#30333F" stroke-linecap="round"/>
<path d="M26.783 37.1636H34.7098" stroke="#30333F" stroke-linecap="round"/>
</svg>
