<svg width="55" height="55" viewBox="0 0 55 55" fill="none" xmlns="http://www.w3.org/2000/svg">
<circle cx="27.5" cy="27.5" r="27.5" fill="white"/>
<circle cx="27.5" cy="27.5" r="26.9608" stroke="#30333F" stroke-opacity="0.5" stroke-width="1.07843"/>
<g clip-path="url(#clip0_5506_124383)">
<path d="M39.96 15.28H29.41C29.272 15.28 29.16 15.392 29.16 15.53V24.32C29.16 24.4581 29.272 24.57 29.41 24.57H39.96C40.0981 24.57 40.21 24.4581 40.21 24.32V15.53C40.21 15.392 40.0981 15.28 39.96 15.28Z" fill="#FF9975"/>
<path d="M40.59 14.13C40.51 14.09 40.42 14.06 40.33 14.03L40.24 14H29.14C28.12 14.4 27.88 14.77 27.88 15.91V20.36C27.88 20.49 27.78 20.6 27.66 20.61H27.6C27.6 20.61 27.52 20.63 27.49 20.63H25.73C23.51 20.63 21.28 20.63 19.05 20.63C18.62 20.63 18.56 20.31 18.54 20.17C18.3 18.84 18.06 17.52 17.82 16.19L17.71 15.59C17.61 15.04 17.42 14.88 16.85 14.88H16.17H12.75C12.29 14.88 12 15.13 12 15.51C12 15.68 12.06 15.83 12.16 15.94C12.29 16.07 12.49 16.14 12.74 16.14C13.51 16.14 14.29 16.14 15.06 16.14H15.99H16.3C16.42 16.14 16.52 16.22 16.55 16.34L16.58 16.47C16.6 16.56 16.62 16.64 16.63 16.73L19.91 34.75C20.03 35.44 20.17 35.56 20.85 35.56H33.56C33.7 35.56 33.79 35.56 33.88 35.55C34.19 35.52 34.42 35.28 34.44 34.97C34.46 34.66 34.26 34.39 33.96 34.33C33.83 34.3 33.68 34.3 33.55 34.3H21.32C21.2 34.3 21.1 34.21 21.07 34.09L20.51 31.01C20.5 30.94 20.51 30.86 20.56 30.8C20.61 30.74 20.68 30.71 20.75 30.71H34.88C34.95 30.71 35.01 30.71 35.08 30.71C35.48 30.69 35.68 30.51 35.76 30.12C35.87 29.57 35.98 29.02 36.09 28.47L36.58 26.05C36.6 25.93 36.71 25.85 36.83 25.85H37.77C38.5 25.85 39.22 25.85 39.94 25.85C40.65 25.85 41.2 25.46 41.42 24.8C41.44 24.74 41.47 24.67 41.49 24.61V15.25C41.32 14.68 41.03 14.32 40.58 14.13H40.59ZM34.65 29.23C34.63 29.35 34.52 29.43 34.4 29.43H20.42C20.3 29.43 20.2 29.34 20.17 29.23L18.89 22.2C18.88 22.13 18.89 22.05 18.94 21.99C18.99 21.93 19.06 21.9 19.13 21.9H27.61C27.75 21.9 27.86 22.01 27.86 22.15V23.49C27.86 23.76 27.86 24.03 27.86 24.31C27.87 25.21 28.52 25.86 29.41 25.86C30.64 25.86 31.87 25.86 33.09 25.86H35C35.08 25.86 35.15 25.89 35.19 25.95C35.24 26.01 35.26 26.08 35.24 26.16L34.63 29.23H34.65ZM40.21 24.32C40.21 24.46 40.1 24.57 39.96 24.57H29.41C29.27 24.57 29.16 24.46 29.16 24.32V15.53C29.16 15.39 29.27 15.28 29.41 15.28H39.96C40.1 15.28 40.21 15.39 40.21 15.53V24.32Z" fill="#30333F"/>
<path d="M21.45 37.8301C20.69 37.8301 19.98 38.1301 19.44 38.6601C18.91 39.2001 18.61 39.9101 18.61 40.6701C18.61 41.4201 18.91 42.1301 19.45 42.6701C19.99 43.2001 20.7 43.5001 21.45 43.5001H21.46C23.01 43.5001 24.27 42.2201 24.28 40.6701C24.28 39.9101 23.99 39.1901 23.45 38.6601C22.91 38.1301 22.22 37.8501 21.44 37.8301H21.45ZM21.47 42.2401H21.45C21.04 42.2401 20.65 42.0801 20.35 41.7901C20.05 41.4901 19.88 41.1001 19.87 40.6801C19.87 40.2601 20.03 39.8601 20.32 39.5701C20.61 39.2701 21.01 39.1001 21.43 39.1001C21.86 39.1101 22.26 39.2601 22.55 39.5501C22.84 39.8401 23.01 40.2301 23.01 40.6501C23.01 41.5201 22.32 42.2301 21.46 42.2401H21.47Z" fill="#30333F"/>
<path d="M32.06 37.8301H32.04C30.5 37.8301 29.23 39.0801 29.21 40.6301C29.21 41.3901 29.49 42.1101 30.02 42.6501C30.55 43.1901 31.26 43.4901 32.01 43.5001C32.78 43.5001 33.49 43.2101 34.03 42.6801C34.57 42.1501 34.87 41.4401 34.87 40.6801C34.87 39.0901 33.64 37.8401 32.05 37.8301H32.06ZM32.06 42.2401C31.64 42.2401 31.25 42.0801 30.96 41.7801C30.66 41.4801 30.5 41.0901 30.49 40.6701C30.49 40.2401 30.65 39.8501 30.94 39.5501C31.23 39.2601 31.63 39.0901 32.05 39.0901C32.92 39.0901 33.62 39.7901 33.62 40.6501C33.62 41.5201 32.92 42.2301 32.05 42.2301L32.06 42.2401Z" fill="#30333F"/>
<path d="M36.03 19.6901C35.36 19.2601 34.67 18.8301 33.98 18.4101C33.88 18.3501 33.81 18.3301 33.76 18.3301C33.74 18.3301 33.73 18.3301 33.72 18.3301C33.68 18.3501 33.64 18.4501 33.63 18.6201C33.63 18.9401 33.63 19.2601 33.63 19.5901V19.9401V20.3401C33.63 20.6401 33.63 20.9501 33.63 21.2501C33.63 21.4101 33.67 21.5101 33.72 21.5301C33.75 21.5501 33.84 21.5401 33.97 21.4601C34.68 21.0401 35.38 20.6001 36.05 20.1601C36.16 20.0801 36.23 20.0001 36.23 19.9301C36.23 19.8601 36.16 19.7701 36.04 19.6901H36.03Z" fill="white"/>
</g>
<defs>
<clipPath id="clip0_5506_124383">
<rect width="29.5" height="29.5" fill="white" transform="translate(12 14)"/>
</clipPath>
</defs>
</svg>
