<svg width="55" height="55" viewBox="0 0 55 55" fill="none" xmlns="http://www.w3.org/2000/svg">
<circle cx="27.5" cy="27.5" r="27.5" fill="white"/>
<circle cx="27.5" cy="27.5" r="26.9608" stroke="#30333F" stroke-opacity="0.5" stroke-width="1.07843"/>
<path d="M39.0511 26.9787L38.5532 27.0895L38.6231 27.4036L38.9367 27.4757L39.0511 26.9787ZM35.0489 20.0851L35.3897 19.7057L35.3897 19.7057L35.0489 20.0851ZM28.4561 17.0277L27.9637 16.8951L27.8076 17.4747L28.4049 17.5351L28.4561 17.0277ZM22.1043 12.5031L21.6074 12.3882L21.3776 13.382L21.8744 13.4969L22.1043 12.5031ZM27.9574 16.9543L28.0058 17.462L28.5488 17.4103L28.4608 16.8719L27.9574 16.9543ZM18.9511 20.0787L19.2918 20.4582L19.292 20.458L18.9511 20.0787ZM14.9489 26.9723L15.0638 27.4692L15.377 27.3969L15.4468 27.0831L14.9489 26.9723ZM15.4213 34.5043L15.9009 34.3309L15.7917 34.0286L15.4719 33.9968L15.4213 34.5043ZM19.5702 40.2872L19.2545 40.6877L19.2548 40.688L19.5702 40.2872ZM34.4298 40.2872L34.1149 39.8861L34.1144 39.8865L34.4298 40.2872ZM38.5787 34.5043L38.5281 33.9968L38.2092 34.0286L38.0995 34.3298L38.5787 34.5043ZM39.5489 26.868C38.9327 24.0984 37.4748 21.5782 35.3897 19.7057L34.7082 20.4645C36.6316 22.192 37.9822 24.5228 38.5532 27.0895L39.5489 26.868ZM35.3897 19.7057C33.3826 17.9032 31.1598 16.7882 28.5074 16.5202L28.4049 17.5351C30.8078 17.7778 32.8344 18.7819 34.7082 20.4646L35.3897 19.7057ZM28.9486 17.1602C28.9792 17.0466 29.087 16.8344 29.298 16.5501C29.5004 16.2774 29.7707 15.9743 30.0815 15.6824C30.7178 15.0848 31.4544 14.5985 32.0609 14.4594L31.8328 13.4652C30.9647 13.6644 30.0677 14.2959 29.3832 14.9389C29.0335 15.2673 28.7216 15.6153 28.4789 15.9423C28.2448 16.2577 28.0448 16.5938 27.9637 16.8951L28.9486 17.1602ZM21.8744 13.4969C23.2204 13.8082 24.5993 14.4208 25.6624 15.1207C26.1936 15.4704 26.6325 15.8331 26.9463 16.1785C27.2679 16.5325 27.4197 16.8261 27.4541 17.0367L28.4608 16.8719C28.3803 16.3804 28.0805 15.91 27.7013 15.4926C27.3144 15.0667 26.8035 14.6507 26.2232 14.2687C25.0635 13.5052 23.5732 12.8429 22.1043 12.5031L21.8744 13.4969ZM27.9091 16.4466C26.5979 16.5715 24.7995 16.9213 23.0786 17.4627C21.3722 17.9995 19.6707 18.7463 18.6102 19.6994L19.292 20.458C20.1846 19.6558 21.7129 18.9617 23.3847 18.4357C25.042 17.9144 26.7702 17.5797 28.0058 17.462L27.9091 16.4466ZM18.6103 19.6993C16.5252 21.5719 15.0673 24.0921 14.4511 26.8616L15.4468 27.0831C16.0178 24.5164 17.3684 22.1856 19.2918 20.4582L18.6103 19.6993ZM14.8341 26.4754C12.9211 26.9174 11.49 28.6463 11.49 30.7H12.51C12.51 29.1282 13.6065 27.806 15.0638 27.4692L14.8341 26.4754ZM11.49 30.7C11.49 32.9406 13.1885 34.7942 15.3707 35.0117L15.4719 33.9968C13.8115 33.8313 12.51 32.4168 12.51 30.7H11.49ZM14.9416 34.6776C15.7967 37.044 17.308 39.1531 19.2545 40.6877L19.886 39.8867C18.092 38.4724 16.6926 36.5219 15.9009 34.3309L14.9416 34.6776ZM19.2548 40.688C21.5003 42.4552 24.1769 43.3951 27 43.3951V42.3751C24.4103 42.3751 21.955 41.515 19.8856 39.8865L19.2548 40.688ZM27 43.3951C29.8231 43.3951 32.4997 42.4552 34.7452 40.688L34.1144 39.8865C32.045 41.515 29.5897 42.3751 27 42.3751V43.3951ZM34.7447 40.6884C36.693 39.159 38.197 37.0429 39.0579 34.6788L38.0995 34.3298C37.3008 36.523 35.907 38.4793 34.1149 39.8861L34.7447 40.6884ZM38.6293 35.0117C40.8115 34.7942 42.51 32.9406 42.51 30.7H41.49C41.49 32.4168 40.1885 33.8313 38.5281 33.9968L38.6293 35.0117ZM42.51 30.7C42.51 28.6461 41.085 26.9236 39.1655 26.4817L38.9367 27.4757C40.4001 27.8126 41.49 29.1284 41.49 30.7H42.51Z" fill="#30333F"/>
<path d="M22.7798 30.8982C23.8797 30.8982 24.7713 30.0094 24.7713 28.9131C24.7713 27.8167 23.8797 26.928 22.7798 26.928C21.68 26.928 20.7883 27.8167 20.7883 28.9131C20.7883 30.0094 21.68 30.8982 22.7798 30.8982Z" fill="#FF9975"/>
<path d="M31.2183 30.8982C32.3182 30.8982 33.2098 30.0094 33.2098 28.9131C33.2098 27.8167 32.3182 26.928 31.2183 26.928C30.1184 26.928 29.2268 27.8167 29.2268 28.9131C29.2268 30.0094 30.1184 30.8982 31.2183 30.8982Z" fill="#FF9975"/>
<path d="M26.7219 35.0617C25.5059 35.0617 24.374 34.5793 23.5488 33.7391C23.145 33.328 22.5117 33.1573 22.0179 33.4543C21.5215 33.7529 21.3567 34.4053 21.7316 34.8469C22.9661 36.3012 24.7663 37.1425 26.7219 37.1425C28.6773 37.1425 30.4773 36.3014 31.7118 34.8474C32.087 34.4055 31.9221 33.7527 31.4254 33.4539C30.9317 33.1571 30.2988 33.3272 29.8955 33.7386C29.0688 34.5819 27.9395 35.0617 26.7219 35.0617Z" fill="#FF9975"/>
</svg>
