<svg width="55" height="55" viewBox="0 0 55 55" fill="none" xmlns="http://www.w3.org/2000/svg">
<circle cx="27.5" cy="27.5" r="27.5" fill="white"/>
<circle cx="27.5" cy="27.5" r="26.9608" stroke="#30333F" stroke-opacity="0.5" stroke-width="1.07843"/>
<g clip-path="url(#clip0_10199_206522)">
<path d="M17.55 26.29C17.65 26.3 17.76 26.29 17.86 26.29C19.23 26.29 20.59 26.29 21.96 26.29C22.15 26.29 22.36 26.35 22.52 26.44C24.86 27.78 27.2 29.13 29.53 30.48C29.84 30.66 30.09 30.66 30.4 30.48C32.83 29.06 35.26 27.66 37.7 26.26C38 26.09 38.13 25.88 38.13 25.53C38.13 22.71 38.13 19.9 38.13 17.08C38.13 16.72 38.01 16.5 37.7 16.32C35.26 14.92 32.82 13.52 30.39 12.1C30.08 11.92 29.83 11.93 29.52 12.1C27.08 13.52 24.64 14.93 22.19 16.33C21.9 16.5 21.78 16.71 21.79 17.04C21.8 18.11 21.79 19.18 21.79 20.25C21.79 20.82 21.79 21.38 21.79 21.95C21.79 22.34 22.09 22.59 22.42 22.49C22.71 22.41 22.79 22.19 22.79 21.91C22.79 20.64 22.79 19.37 22.79 18.1V17.71C23.34 18.03 23.84 18.32 24.34 18.6C24.52 18.7 24.59 18.81 24.59 19.02C24.58 19.77 24.59 20.51 24.59 21.26C24.59 21.53 24.68 21.72 24.92 21.85C25.56 22.21 26.19 22.58 26.83 22.95C27.29 23.21 27.65 23 27.66 22.47C27.66 22.02 27.66 21.57 27.66 21.12C27.66 20.94 27.66 20.76 27.66 20.53C28.22 20.85 28.7 21.14 29.2 21.41C29.39 21.51 29.46 21.64 29.46 21.85C29.46 24.2 29.46 26.56 29.46 28.91C29.46 29 29.46 29.09 29.45 29.24C27.75 28.26 26.08 27.3 24.42 26.33C24.42 26.3 24.43 26.28 24.44 26.25C24.73 26.25 25.02 26.25 25.31 26.25C25.75 26.25 25.97 26.08 25.97 25.76C25.97 25.43 25.75 25.26 25.31 25.25C25.28 25.25 25.25 25.25 25.22 25.25C22.76 25.25 20.3 25.25 17.85 25.25C17.76 25.25 17.66 25.25 17.57 25.25C17.28 25.28 17.09 25.48 17.09 25.74C17.09 26 17.28 26.21 17.56 26.24L17.55 26.29ZM37.12 17.81V18.15C37.12 20.48 37.12 22.81 37.12 25.14C37.12 25.37 37.06 25.49 36.85 25.61C34.83 26.77 32.82 27.93 30.8 29.1C30.71 29.15 30.62 29.2 30.49 29.26C30.48 29.16 30.46 29.08 30.46 29.01C30.46 26.63 30.46 24.24 30.46 21.86C30.46 21.74 30.53 21.56 30.63 21.51C32.73 20.28 34.84 19.07 36.95 17.86C36.98 17.85 37.01 17.84 37.1 17.81H37.12ZM24.86 17.81C24.37 17.51 23.87 17.23 23.33 16.92C23.44 16.85 23.52 16.79 23.6 16.74C25.64 15.56 27.69 14.38 29.73 13.2C29.91 13.1 30.04 13.1 30.21 13.2C30.7 13.5 31.21 13.78 31.75 14.1C31.01 14.53 30.31 14.93 29.61 15.33C28.18 16.15 26.76 16.97 25.34 17.8C25.16 17.9 25.03 17.92 24.86 17.8V17.81ZM26.66 21.75C26.29 21.53 25.98 21.36 25.68 21.18C25.64 21.15 25.6 21.08 25.6 21.02C25.6 20.5 25.6 19.98 25.6 19.4C25.95 19.6 26.26 19.77 26.56 19.95C26.61 19.98 26.66 20.07 26.66 20.13C26.66 20.64 26.66 21.15 26.66 21.75ZM27.4 19.01C27.24 19.11 27.11 19.13 26.94 19.01C26.68 18.84 26.4 18.69 26.1 18.51C26.8 18.1 27.46 17.72 28.12 17.34C29.59 16.49 31.06 15.64 32.53 14.79C32.68 14.7 32.8 14.68 32.95 14.79C33.21 14.96 33.49 15.11 33.81 15.29C32.92 15.8 32.09 16.28 31.26 16.76C29.97 17.5 28.68 18.25 27.39 19L27.4 19.01ZM28.18 19.72C28.88 19.31 29.54 18.93 30.2 18.55C31.66 17.71 33.13 16.87 34.58 16.01C34.77 15.9 34.91 15.9 35.09 16.01C35.58 16.31 36.08 16.59 36.61 16.9C36.46 16.99 36.35 17.06 36.23 17.13C34.22 18.29 32.21 19.44 30.21 20.61C30.02 20.72 29.88 20.71 29.7 20.61C29.21 20.31 28.71 20.03 28.18 19.72Z" fill="#30333F"/>
<path d="M40.33 32.01C39.38 31.15 38.02 31 36.91 31.63C35.33 32.54 33.75 33.45 32.16 34.36C31.84 34.54 31.49 34.67 31.09 34.86C31.12 34.71 31.14 34.65 31.15 34.59C31.41 33.4 30.79 31.89 29.39 31.53C27.2 30.98 25.01 30.37 22.83 29.78C21.86 29.52 20.94 29.65 20.07 30.16C18.7 30.96 17.33 31.74 15.95 32.53C15.85 32.58 15.76 32.64 15.65 32.69C15.57 32.55 15.5 32.44 15.44 32.33C15.38 32.22 15.32 32.11 15.25 32C15.04 31.66 14.8 31.59 14.46 31.78C13.41 32.38 12.37 32.98 11.33 33.59C10.95 33.81 10.9 34.11 11.18 34.45C13.2 36.88 15.23 39.3 17.26 41.72C17.48 41.98 17.69 42.03 17.98 41.86C18.57 41.53 19.15 41.2 19.72 40.85C20.04 40.66 20.1 40.41 19.91 40.07C19.79 39.84 19.65 39.62 19.51 39.37C19.75 39.23 19.98 39.11 20.2 38.97C20.92 38.5 21.68 38.42 22.52 38.66C24.39 39.18 26.27 39.65 28.14 40.18C29.27 40.5 30.3 40.37 31.31 39.77C32.77 38.9 34.25 38.07 35.72 37.22C37.16 36.39 38.59 35.56 40.02 34.73C40.55 34.42 40.98 34.03 41 33.37C41.01 32.8 40.73 32.37 40.33 32V32.01ZM17.91 40.74C17.85 40.77 17.69 40.67 17.63 40.59C16.41 39.14 15.19 37.68 13.97 36.22C13.42 35.56 12.87 34.9 12.28 34.2C13.07 33.74 13.82 33.31 14.59 32.86C16.01 35.31 17.41 37.74 18.83 40.21C18.52 40.39 18.22 40.58 17.9 40.73L17.91 40.74ZM39.53 33.86C36.57 35.57 33.61 37.28 30.65 39C30 39.38 29.33 39.47 28.59 39.27C26.66 38.74 24.72 38.24 22.79 37.71C21.7 37.41 20.68 37.5 19.71 38.12C19.49 38.26 19.26 38.38 19 38.52C18.05 36.88 17.11 35.24 16.15 33.59C16.24 33.53 16.33 33.47 16.41 33.42C17.77 32.63 19.14 31.86 20.5 31.06C21.18 30.66 21.88 30.57 22.65 30.78C24.8 31.37 26.95 31.97 29.12 32.51C30.04 32.74 30.36 33.9 30.1 34.52C29.96 34.86 29.71 34.98 29.3 34.88C28.2 34.6 27.11 34.3 26.02 34.01C25.87 33.97 25.72 33.93 25.56 33.89C25.25 33.82 24.99 33.97 24.92 34.24C24.85 34.52 25 34.77 25.31 34.86C26.08 35.07 26.85 35.28 27.62 35.48C27.96 35.57 28.32 35.64 28.65 35.76C30 36.21 31.29 36 32.5 35.31C34.14 34.39 35.76 33.44 37.39 32.51C38.12 32.09 39.04 32.2 39.64 32.76C40.12 33.21 40.09 33.54 39.52 33.87L39.53 33.86Z" fill="#30333F"/>
<path d="M19.87 24.0701C20.62 24.0701 21.36 24.0701 22.11 24.0701C22.84 24.0701 23.58 24.0701 24.31 24.0701C24.72 24.0701 24.94 23.8901 24.94 23.5701C24.94 23.2501 24.71 23.0601 24.31 23.0601C22.83 23.0601 21.35 23.0601 19.87 23.0601C19.48 23.0601 19.25 23.2601 19.26 23.5801C19.26 23.8901 19.48 24.0601 19.87 24.0601V24.0701Z" fill="#30333F"/>
<path d="M26.66 21.7399C26.29 21.5199 25.98 21.3499 25.68 21.1699C25.64 21.1399 25.6 21.0699 25.6 21.0099C25.6 20.4899 25.6 19.9699 25.6 19.3899C25.95 19.5899 26.26 19.7599 26.56 19.9399C26.61 19.9699 26.66 20.0599 26.66 20.1199C26.66 20.6299 26.66 21.1399 26.66 21.7399Z" fill="#FF9975"/>
<path d="M27.4 18.99C27.24 19.09 27.11 19.11 26.94 18.99C26.68 18.82 26.4 18.67 26.1 18.49C26.8 18.08 27.46 17.7 28.12 17.32C29.59 16.47 31.06 15.62 32.53 14.77C32.68 14.68 32.8 14.66 32.95 14.77C33.21 14.94 33.49 15.09 33.81 15.27C32.92 15.78 32.09 16.26 31.26 16.74C29.97 17.48 28.68 18.23 27.39 18.98L27.4 18.99Z" fill="#FF9975"/>
</g>
<defs>
<clipPath id="clip0_10199_206522">
<rect width="30" height="29.97" fill="white" transform="translate(11 12)"/>
</clipPath>
</defs>
</svg>
