<svg width="55" height="55" viewBox="0 0 55 55" fill="none" xmlns="http://www.w3.org/2000/svg">
<circle cx="27.5" cy="27.5" r="27.5" fill="white"/>
<circle cx="27.5" cy="27.5" r="26.9608" stroke="#30333F" stroke-opacity="0.5" stroke-width="1.07843"/>
<g clip-path="url(#clip0_5506_124481)">
<path d="M33.1 27.02V28.04C32.76 28.09 32.43 28.15 32.1 28.19C31.86 28.22 31.72 28.34 31.64 28.57C31.5 28.94 31.35 29.31 31.18 29.67C31.08 29.89 31.09 30.08 31.24 30.27C31.44 30.53 31.64 30.8 31.84 31.07C31.59 31.31 31.35 31.54 31.09 31.79C30.85 31.61 30.59 31.43 30.34 31.23C30.12 31.05 29.92 31.05 29.67 31.18C29.34 31.35 29 31.49 28.65 31.6C28.39 31.68 28.26 31.84 28.23 32.09C28.19 32.41 28.14 32.72 28.1 33.06H27.06C27.02 32.74 26.97 32.44 26.93 32.13C26.9 31.85 26.77 31.68 26.48 31.59C26.13 31.48 25.79 31.33 25.46 31.17C25.23 31.06 25.04 31.05 24.84 31.21C24.58 31.41 24.31 31.61 24.05 31.8C23.81 31.55 23.58 31.3 23.33 31.04C23.5 30.81 23.7 30.54 23.9 30.28C24.06 30.08 24.06 29.89 23.95 29.66C23.79 29.32 23.64 28.97 23.51 28.61C23.43 28.37 23.3 28.23 23.04 28.2C22.7 28.16 22.37 28.1 22.03 28.05V27.03C22.39 26.98 22.73 26.92 23.06 26.88C23.29 26.85 23.41 26.72 23.49 26.51C23.63 26.14 23.78 25.77 23.95 25.41C24.05 25.19 24.04 25 23.89 24.81C23.69 24.55 23.49 24.28 23.3 24.02C23.56 23.78 23.8 23.55 24.06 23.3C24.3 23.48 24.57 23.67 24.82 23.87C25.02 24.03 25.21 24.03 25.44 23.92C25.78 23.76 26.13 23.61 26.49 23.49C26.75 23.4 26.88 23.25 26.91 22.99C26.95 22.67 27 22.36 27.04 22.02H28.08C28.13 22.34 28.17 22.65 28.21 22.95C28.24 23.23 28.37 23.4 28.66 23.49C29.01 23.6 29.35 23.76 29.68 23.92C29.91 24.03 30.1 24.03 30.3 23.88C30.56 23.68 30.83 23.48 31.09 23.29C31.33 23.54 31.56 23.77 31.81 24.04C31.65 24.26 31.46 24.53 31.26 24.78C31.08 25 31.08 25.2 31.21 25.45C31.37 25.78 31.51 26.12 31.63 26.47C31.71 26.71 31.84 26.85 32.1 26.88C32.44 26.92 32.77 26.98 33.11 27.03L33.1 27.02Z" fill="#FF9975"/>
<path d="M25.09 17.85C24.18 18.1 23.33 18.48 22.54 18.99C22.28 19.15 22.22 19.39 22.36 19.61C22.49 19.83 22.74 19.87 23 19.73C23.03 19.71 23.07 19.69 23.1 19.67C24.87 18.59 26.79 18.15 28.84 18.5C32.12 19.05 34.43 20.9 35.55 24.02C36.68 27.15 36.05 30.04 33.88 32.58C33.56 32.95 33.19 33.31 32.79 33.59C31.93 34.21 31.27 34.95 31.1 36.06C30.62 36.06 30.17 36.06 29.71 36.06C29.37 36.06 29.16 36.23 29.16 36.49C29.16 36.76 29.36 36.93 29.7 36.93C29.89 36.93 30.07 36.93 30.26 36.93C30.53 36.93 30.8 36.93 31.07 36.93C31.07 37.73 31.08 38.48 31.07 39.23C31.06 39.77 30.63 40.18 30.08 40.19C28.4 40.2 26.73 40.2 25.05 40.19C24.55 40.19 24.1 39.83 24.08 39.35C24.04 38.56 24.07 37.76 24.07 36.94C24.34 36.94 24.59 36.94 24.85 36.94C25.83 36.94 26.82 36.94 27.8 36.94C28.11 36.94 28.28 36.77 28.28 36.51C28.28 36.25 28.1 36.08 27.8 36.07C27.73 36.07 27.66 36.07 27.6 36.07H24.03C23.86 34.99 23.22 34.29 22.41 33.65C19.69 31.47 18.63 28.63 19.24 25.2C19.54 23.52 20.38 22.09 21.6 20.88C21.84 20.64 21.86 20.37 21.67 20.19C21.48 20 21.23 20.02 21 20.25C18.34 22.79 17.46 26.91 18.84 30.33C19.54 32.06 20.63 33.47 22.14 34.55C22.86 35.07 23.21 35.76 23.2 36.65C23.2 37.48 23.2 38.31 23.2 39.14C23.2 40.04 23.68 40.7 24.52 41.01C24.63 41.05 24.72 41.17 24.8 41.26C25.08 41.6 25.33 41.98 25.65 42.29C26.07 42.69 26.62 42.84 27.17 42.97H27.99C27.99 42.97 28.04 42.94 28.07 42.93C29.14 42.74 29.92 42.15 30.4 41.18C30.44 41.11 30.53 41.04 30.61 41.01C31.51 40.68 31.96 40.04 31.96 39.08C31.96 38.22 31.96 37.36 31.96 36.51C31.96 35.78 32.27 35.17 32.83 34.7C32.99 34.56 33.17 34.44 33.34 34.31C36.24 31.91 37.45 28.83 36.77 25.14C35.78 19.76 30.38 16.45 25.09 17.88V17.85ZM27.8 42.05C26.95 42.14 26.26 41.81 25.7 41.08H29.39C28.99 41.68 28.45 41.98 27.79 42.05H27.8Z" fill="#30333F"/>
<path d="M32.73 24.2699C32.92 23.9999 32.92 23.8199 32.7 23.5899C32.3 23.1899 31.9 22.7899 31.5 22.3899C31.31 22.1999 31.09 22.1799 30.87 22.3399C30.62 22.5299 30.37 22.7099 30.12 22.8999C30 22.9899 29.91 22.9899 29.76 22.9499C29.18 22.8099 28.92 22.4699 28.96 21.8799C28.96 21.7699 28.93 21.6499 28.91 21.5299C28.86 21.2399 28.71 21.1099 28.41 21.1099C27.84 21.1099 27.28 21.1099 26.71 21.1099C26.41 21.1099 26.27 21.2499 26.22 21.5399C26.17 21.8499 26.15 22.1599 26.08 22.4599C26.06 22.5499 25.97 22.6499 25.89 22.7099C25.4 23.0399 24.95 23.0099 24.55 22.5499C24.47 22.4599 24.36 22.4099 24.27 22.3399C24.04 22.1699 23.82 22.1799 23.62 22.3899C23.22 22.7899 22.82 23.1899 22.42 23.5899C22.21 23.7999 22.21 24.0099 22.38 24.2399C22.44 24.3299 22.5 24.4199 22.58 24.4899C23.01 24.8899 23.11 25.3199 22.77 25.8299C22.77 25.8299 22.77 25.8499 22.77 25.8599C22.7 25.9199 22.63 26.0199 22.55 26.0299C22.23 26.0899 21.9 26.1399 21.57 26.1799C21.29 26.2199 21.16 26.3899 21.16 26.6599C21.16 27.2299 21.16 27.7899 21.16 28.3599C21.16 28.6299 21.29 28.7999 21.57 28.8499C21.68 28.8699 21.78 28.8899 21.89 28.8899C22.44 28.8999 22.9 29.0299 22.99 29.6799C22.99 29.6799 22.99 29.6999 23 29.7099C23.1 29.8399 23.06 29.9499 22.96 30.0699C22.78 30.2999 22.6 30.5299 22.43 30.7699C22.22 31.0599 22.23 31.2299 22.48 31.4899C22.86 31.8699 23.24 32.2499 23.62 32.6299C23.87 32.8699 24.04 32.8899 24.32 32.6899C24.41 32.6299 24.5 32.5699 24.58 32.4999C24.97 32.0699 25.4 31.9699 25.89 32.3199C25.99 32.3899 26.09 32.4999 26.11 32.5999C26.18 32.8799 26.2 33.1799 26.24 33.4699C26.29 33.8099 26.43 33.9399 26.76 33.9399C27.32 33.9399 27.87 33.9399 28.43 33.9399C28.75 33.9399 28.89 33.8099 28.94 33.4899C28.98 33.1899 29.01 32.8899 29.07 32.5899C29.09 32.4999 29.15 32.3799 29.22 32.3499C29.93 31.9899 29.93 31.9999 30.57 32.4699C30.69 32.5599 30.8 32.6499 30.92 32.7299C31 32.7799 31.09 32.8099 31.21 32.8599C31.32 32.7899 31.45 32.7399 31.54 32.6499C31.93 32.2699 32.32 31.8799 32.7 31.4999C32.95 31.2499 32.96 31.0699 32.74 30.7799C32.56 30.5399 32.37 30.2999 32.2 30.0499C32.16 29.9899 32.11 29.8899 32.13 29.8199C32.21 29.5799 32.31 29.3499 32.42 29.1199C32.45 29.0699 32.53 29.0299 32.6 29.0199C32.93 28.9599 33.25 28.9199 33.58 28.8699C33.85 28.8299 34 28.6699 34 28.3999C34 27.8299 34 27.2499 34 26.6799C34 26.4099 33.86 26.2399 33.58 26.2099C33.47 26.1999 33.37 26.1599 33.26 26.1699C32.67 26.1899 32.27 25.9599 32.16 25.3399C32.14 25.2399 32.14 25.1099 32.19 25.0399C32.36 24.7799 32.56 24.5399 32.74 24.2899L32.73 24.2699ZM33.1 27.0199V28.0399C32.76 28.0899 32.43 28.1499 32.1 28.1899C31.86 28.2199 31.72 28.3399 31.64 28.5699C31.5 28.9399 31.35 29.3099 31.18 29.6699C31.08 29.8899 31.09 30.0799 31.24 30.2699C31.44 30.5299 31.64 30.7999 31.84 31.0699C31.59 31.3099 31.35 31.5399 31.09 31.7899C30.85 31.6099 30.59 31.4299 30.34 31.2299C30.12 31.0499 29.92 31.0499 29.67 31.1799C29.34 31.3499 29 31.4899 28.65 31.5999C28.39 31.6799 28.26 31.8399 28.23 32.0899C28.19 32.4099 28.14 32.7199 28.1 33.0599H27.06C27.02 32.7399 26.97 32.4399 26.93 32.1299C26.9 31.8499 26.77 31.6799 26.48 31.5899C26.13 31.4799 25.79 31.3299 25.46 31.1699C25.23 31.0599 25.04 31.0499 24.84 31.2099C24.58 31.4099 24.31 31.6099 24.05 31.7999C23.81 31.5499 23.58 31.2999 23.33 31.0399C23.5 30.8099 23.7 30.5399 23.9 30.2799C24.06 30.0799 24.06 29.8899 23.95 29.6599C23.79 29.3199 23.64 28.9699 23.51 28.6099C23.43 28.3699 23.3 28.2299 23.04 28.1999C22.7 28.1599 22.37 28.0999 22.03 28.0499V27.0299C22.39 26.9799 22.73 26.9199 23.06 26.8799C23.29 26.8499 23.41 26.7199 23.49 26.5099C23.63 26.1399 23.78 25.7699 23.95 25.4099C24.05 25.1899 24.04 24.9999 23.89 24.8099C23.69 24.5499 23.49 24.2799 23.3 24.0199C23.56 23.7799 23.8 23.5499 24.06 23.2999C24.3 23.4799 24.57 23.6699 24.82 23.8699C25.02 24.0299 25.21 24.0299 25.44 23.9199C25.78 23.7599 26.13 23.6099 26.49 23.4899C26.75 23.3999 26.88 23.2499 26.91 22.9899C26.95 22.6699 27 22.3599 27.04 22.0199H28.08C28.13 22.3399 28.17 22.6499 28.21 22.9499C28.24 23.2299 28.37 23.3999 28.66 23.4899C29.01 23.5999 29.35 23.7599 29.68 23.9199C29.91 24.0299 30.1 24.0299 30.3 23.8799C30.56 23.6799 30.83 23.4799 31.09 23.2899C31.33 23.5399 31.56 23.7699 31.81 24.0399C31.65 24.2599 31.46 24.5299 31.26 24.7799C31.08 24.9999 31.08 25.1999 31.21 25.4499C31.37 25.7799 31.51 26.1199 31.63 26.4699C31.71 26.7099 31.84 26.8499 32.1 26.8799C32.44 26.9199 32.77 26.9799 33.11 27.0299L33.1 27.0199Z" fill="#30333F"/>
<path d="M16.95 26.1099C16.13 26.1099 15.32 26.1099 14.5 26.1099C14.19 26.1099 14 26.2999 14 26.5699C14 26.8199 14.2 26.9799 14.5 26.9899C14.91 26.9899 15.32 26.9899 15.73 26.9899C16.14 26.9899 16.55 26.9899 16.96 26.9899C17.26 26.9899 17.45 26.8199 17.46 26.5699C17.46 26.3099 17.27 26.1199 16.96 26.1199L16.95 26.1099Z" fill="#30333F"/>
<path d="M40.63 26.1099C39.81 26.1099 39 26.1099 38.18 26.1099C37.87 26.1099 37.67 26.2999 37.68 26.5599C37.68 26.8099 37.87 26.9799 38.17 26.9799C38.58 26.9799 38.99 26.9799 39.4 26.9799C39.81 26.9799 40.22 26.9799 40.63 26.9799C40.93 26.9799 41.12 26.8099 41.13 26.5599C41.13 26.2999 40.94 26.1099 40.63 26.0999V26.1099Z" fill="#30333F"/>
<path d="M27.58 16.4399C27.84 16.4399 28 16.2399 28 15.9199C28 15.5199 28 15.1199 28 14.7299C28 14.3399 28 13.9299 28 13.5399C28 13.1999 27.82 12.9999 27.55 13.0099C27.29 13.0099 27.13 13.2099 27.13 13.5299C27.13 14.3299 27.13 15.1199 27.13 15.9199C27.13 16.2599 27.31 16.4599 27.58 16.4499V16.4399Z" fill="#30333F"/>
<path d="M35.39 19.35C35.96 18.78 36.54 18.21 37.1 17.64C37.19 17.55 37.24 17.42 37.34 17.26C37.23 17.12 37.16 16.97 37.03 16.89C36.85 16.78 36.66 16.84 36.5 16.99C35.92 17.58 35.33 18.16 34.75 18.74C34.54 18.96 34.53 19.2 34.71 19.39C34.9 19.58 35.15 19.57 35.38 19.35H35.39Z" fill="#30333F"/>
<path d="M18.38 17.9898C18.84 18.4498 19.3 18.9098 19.76 19.3698C19.91 19.5198 20.1 19.5898 20.29 19.4698C20.41 19.3898 20.49 19.2398 20.59 19.1198C20.52 18.9798 20.49 18.8598 20.42 18.7898C19.81 18.1698 19.2 17.5598 18.58 16.9598C18.4 16.7898 18.14 16.8098 17.98 16.9698C17.82 17.1398 17.81 17.3798 17.98 17.5698C18.11 17.7198 18.25 17.8498 18.39 17.9898H18.38Z" fill="#30333F"/>
<path d="M31.73 17.0098C31.93 16.6398 32.07 16.2298 32.27 15.7798C32.14 15.6498 32.05 15.4798 31.91 15.4098C31.72 15.3198 31.51 15.3898 31.41 15.5898C31.25 15.9298 31.1 16.2798 31.01 16.6498C30.98 16.7798 31.1 16.9998 31.22 17.0998C31.38 17.2298 31.63 17.1998 31.73 17.0098Z" fill="#30333F"/>
<path d="M23.34 16.9499C23.43 17.1499 23.64 17.2199 23.83 17.1399C23.97 17.0799 24.07 16.9199 24.21 16.7899C24.01 16.3299 23.85 15.9099 23.62 15.5199C23.57 15.4299 23.28 15.4199 23.13 15.4699C22.93 15.5299 22.87 15.7399 22.93 15.9299C23.05 16.2799 23.18 16.6199 23.33 16.9599L23.34 16.9499Z" fill="#30333F"/>
<path d="M38.67 22.1598C38.57 21.9598 38.39 21.8698 38.18 21.9398C37.84 22.0498 37.5 22.1798 37.18 22.3298C36.98 22.4198 36.9 22.6298 36.99 22.8198C37.06 22.9598 37.22 23.0598 37.35 23.1898C37.8 22.9998 38.19 22.8598 38.56 22.6698C38.75 22.5698 38.77 22.3498 38.67 22.1498V22.1598Z" fill="#30333F"/>
<path d="M16.9199 21.9398C16.7099 21.8798 16.4999 21.9798 16.4599 22.1898C16.4299 22.3398 16.4699 22.6098 16.5699 22.6698C16.9299 22.8698 17.3299 23.0098 17.7699 23.1998C17.8999 23.0698 18.0599 22.9698 18.1299 22.8298C18.2199 22.6498 18.1599 22.4398 17.9699 22.3498C17.6299 22.1898 17.2699 22.0498 16.9199 21.9398Z" fill="#30333F"/>
<path d="M27.6 24.69C26.02 24.68 24.72 25.96 24.72 27.53C24.72 29.08 25.99 30.36 27.55 30.36C29.12 30.36 30.4 29.1 30.41 27.54C30.42 25.99 29.15 24.71 27.6 24.69ZM27.56 29.49C26.49 29.49 25.61 28.61 25.6 27.54C25.6 26.46 26.49 25.57 27.57 25.57C28.64 25.57 29.52 26.45 29.53 27.52C29.53 28.6 28.65 29.49 27.56 29.49Z" fill="white"/>
</g>
<defs>
<clipPath id="clip0_5506_124481">
<rect width="27.13" height="29.94" fill="white" transform="translate(14 13)"/>
</clipPath>
</defs>
</svg>
