<svg width="32" height="24" viewBox="0 0 32 24" fill="none" xmlns="http://www.w3.org/2000/svg">
<g clip-path="url(#clip0_5506_125140)">
<path d="M13.8011 11.2267V4.18676C10.9152 3.96813 8.04022 3.76043 5.1543 3.55273V10.5926C8.04022 10.8003 10.9152 11.019 13.8011 11.2267Z" fill="#F79877"/>
<path d="M30.712 1.97818C30.5153 1.96725 30.3513 2.09842 30.3294 2.28426C30.3294 2.34985 30.3294 2.42637 30.3294 2.49196V2.57941V22.6825H20.655V22.4639C20.8955 22.4311 21.1579 22.4092 21.4093 22.3983C21.5951 22.3873 21.781 22.3764 21.9668 22.3546C22.0761 22.3436 22.1964 22.3436 22.3057 22.3327C22.6336 22.3218 22.9397 22.2999 23.2349 22.1359C24.973 21.1193 26.3066 19.9387 27.3233 18.5176C27.5747 18.1678 27.7824 17.7633 27.9791 17.3807C28.1541 17.0528 28.329 16.703 28.5367 16.3859C28.9411 15.7628 29.116 15.0742 29.116 14.134C29.116 10.8327 29.116 7.5314 29.116 4.23007V0.600805C29.116 0.535216 29.116 0.480558 29.116 0.414969C29.116 0.261928 29.0395 0.130749 28.9302 0.06516C28.8318 -0.000429244 28.7006 -0.0113608 28.5804 0.0432969C27.5856 0.414969 26.5471 0.535216 25.4758 0.622668C24.4592 0.71012 23.4207 0.77571 22.415 0.85223C21.4093 0.917819 20.3708 0.99434 19.3542 1.08179C18.0315 1.19111 16.993 1.42067 16.0966 1.81421C15.9873 1.85793 15.8342 1.87979 15.7249 1.83607C14.5224 1.28949 13.2216 1.13645 11.9863 1.02713C11.0025 0.939683 9.99678 0.874093 9.0348 0.808504C7.98537 0.742915 6.90315 0.666394 5.84279 0.56801C4.9792 0.49149 4.12654 0.294722 3.41599 0.108886C3.10991 0.0323654 2.92408 0.0323654 2.82569 0.108886C2.72731 0.185407 2.68358 0.34938 2.68358 0.6336V15.1507C2.68358 17.0965 2.68358 19.0423 2.68358 20.9881C2.68358 21.3051 2.7929 21.4691 3.06618 21.5456C3.16457 21.5784 3.27388 21.6003 3.37227 21.6331C3.5909 21.6987 3.80953 21.7643 4.03909 21.8189C5.38367 22.1031 6.78291 22.1797 8.12748 22.2562C8.4117 22.278 8.69592 22.289 8.99108 22.3108L11.2758 22.4529L11.2539 22.6934H11.1446H1.48111V2.59034C1.48111 2.59034 1.48111 2.52475 1.48111 2.49196C1.48111 2.41544 1.48111 2.33892 1.48111 2.27333C1.43739 2.07656 1.31714 1.97818 1.10944 1.97818C0.901742 1.97818 0.781495 2.07656 0.737769 2.27333C0.726837 2.32799 0.737769 2.38264 0.737769 2.44823V2.52475V22.9121C0.737769 23.3603 0.836152 23.4586 1.28435 23.4586H30.559C31.029 23.4586 31.1165 23.3603 31.1165 22.8902V2.45917C31.1165 2.39358 31.1165 2.33892 31.1165 2.28426C31.0837 2.07656 30.9635 1.97818 30.7448 1.97818H30.712ZM15.5172 22.3764L15.386 22.3436C15.2002 22.2999 15.0034 22.2562 14.8176 22.2124C14.4131 22.1141 14.0196 22.0157 13.626 21.961C12.4673 21.808 11.3195 21.6987 10.2373 21.6003C9.51579 21.5347 8.79431 21.48 8.08376 21.4144C6.91408 21.3161 5.70068 21.2177 4.49822 21.0865C3.48158 20.9772 3.44879 20.8679 3.44879 19.8731V1.0162H3.56904C3.87512 1.07086 4.1812 1.11459 4.47635 1.14738C5.15411 1.23483 5.79907 1.32229 6.46589 1.38788C7.16551 1.45346 7.87606 1.49719 8.57568 1.54092C9.04573 1.57371 9.50486 1.59557 9.97491 1.62837C10.1826 1.6393 10.3794 1.66116 10.5871 1.6721C11.9972 1.77048 13.4511 1.86886 14.8394 2.29519C15.4953 2.49196 15.5281 2.53569 15.5281 3.2353V22.3764H15.5172ZM27.1593 17.4572C26.5034 18.6597 25.5086 19.5124 24.7106 20.1355L24.5139 20.2885L24.7106 17.3042H27.2467L27.1593 17.4682V17.4572ZM16.6759 22.2999C16.5885 22.3218 16.501 22.3546 16.4136 22.3764L16.2715 22.4201V18.7581C16.2715 13.5109 16.2715 8.26381 16.2715 3.00574C16.2715 2.75432 16.3261 2.45917 16.7306 2.37171C17.0039 2.31706 17.2772 2.25147 17.5505 2.18588C18.1954 2.03284 18.8622 1.87979 19.54 1.81421C20.7206 1.69396 21.9231 1.61744 23.0928 1.54092C23.9454 1.48626 24.8199 1.42067 25.6835 1.35508C26.1973 1.31135 26.7111 1.2239 27.2139 1.13645C27.4544 1.09272 27.684 1.05993 27.9245 1.0162L28.3399 0.950614V3.97865C28.3399 7.37836 28.3399 10.789 28.3399 14.1887C28.3399 14.4183 28.318 14.6588 28.2852 14.9102C28.1541 15.8722 27.5637 16.4297 26.569 16.5171C25.9131 16.5718 25.2463 16.5171 24.5139 16.3203C24.2843 16.2548 24.1312 16.2657 24.0329 16.3422C23.9345 16.4187 23.8908 16.5718 23.8908 16.8013V17.009C23.8908 18.0475 23.8908 19.1188 23.6503 20.1682C23.5956 20.3759 23.53 20.5946 23.4426 20.8023C23.2349 21.2833 22.896 21.5128 22.3603 21.5456C20.655 21.6331 18.895 21.7205 17.1897 22.1469C17.0148 22.1906 16.8508 22.2452 16.665 22.2999H16.6759Z" fill="#303440"/>
<path d="M18.2722 14.6048C18.2722 14.4845 18.4253 14.3096 18.5455 14.2878C19.103 14.2112 19.6496 14.1347 20.2071 14.091C21.1363 14.0254 22.0764 13.9598 23.0056 13.8942C23.4975 13.8614 23.9894 13.8286 24.4813 13.7958C24.8639 13.774 25.2466 13.7412 25.6401 13.7084L26.3725 13.6537V14.1457C26.3725 14.3971 26.3725 14.6376 26.3725 14.8781C26.3725 15.042 26.4272 15.3153 26.7551 15.3153C27.083 15.3153 27.1377 15.042 27.1377 14.8781C27.1377 14.4408 27.1377 14.0035 27.1377 13.5554V13.3367C27.1377 13.1072 27.1049 12.976 27.0284 12.8995C26.9628 12.8448 26.8644 12.812 26.7114 12.812C26.6786 12.812 26.6349 12.812 26.5911 12.812L24.9733 12.9323C23.4975 13.0416 21.978 13.14 20.4804 13.2711C19.6824 13.3367 18.8735 13.457 18.0864 13.5772L17.8896 13.61C17.5835 13.6537 17.4961 13.7631 17.4961 14.091C17.4961 15.84 17.4961 17.5891 17.4961 19.3381C17.4961 19.524 17.5398 19.6442 17.6273 19.7207C17.7147 19.7973 17.8678 19.8191 18.0755 19.7973C18.8953 19.677 19.6387 19.5896 20.3383 19.513C20.7318 19.4693 21.1254 19.4475 21.5189 19.4147C21.8468 19.3928 22.1639 19.3709 22.4918 19.3381C22.623 19.3272 22.7214 19.2725 22.787 19.1851C22.8525 19.0976 22.8635 18.9883 22.8307 18.8681C22.776 18.6494 22.623 18.562 22.3497 18.5839L21.497 18.6494C20.863 18.7041 20.229 18.7478 19.5949 18.8025C19.3217 18.8244 19.0593 18.8571 18.786 18.8899L18.2832 18.9446V18.2122C18.2832 16.9988 18.2832 15.7963 18.2832 14.6048H18.2722Z" fill="#303440"/>
<path d="M17.8675 4.52569C17.9878 4.50383 18.108 4.48196 18.2283 4.4601C18.4797 4.41638 18.7421 4.36172 19.0044 4.33986C20.0648 4.2524 21.1251 4.17588 22.1855 4.09936C23.0928 4.03377 24.0001 3.96818 24.9075 3.89166C25.4759 3.84794 26.0771 3.78235 26.7986 3.69489C26.9189 3.68396 27.0063 3.62931 27.0719 3.55278C27.1375 3.47626 27.1593 3.36695 27.1375 3.25763C27.1047 3.04993 26.9735 2.92969 26.7549 2.92969C26.7439 2.92969 26.7221 2.92969 26.7112 2.92969C26.5909 2.92969 26.4816 2.95155 26.3613 2.96248C26.252 2.97341 26.1427 2.99528 26.0334 2.99528C25.3775 3.039 24.7325 3.08273 24.0767 3.13739C22.7102 3.23577 21.3 3.33415 19.9117 3.44347C19.2886 3.49813 18.6655 3.59651 18.0534 3.69489L17.791 3.73862C17.6817 3.76048 17.5943 3.80421 17.5396 3.88073C17.4849 3.95725 17.4631 4.06657 17.4849 4.17588C17.5287 4.38358 17.6489 4.4929 17.8566 4.50383L17.8675 4.52569Z" fill="#303440"/>
<path d="M26.7439 5.41083C26.7439 5.41083 26.7112 5.41083 26.6893 5.41083C26.58 5.41083 26.4816 5.4327 26.3723 5.44363C26.263 5.45456 26.1536 5.47642 26.0443 5.47642C25.3775 5.52015 24.7107 5.57481 24.0439 5.61853C22.6884 5.71692 21.3 5.8153 19.9227 5.92462C19.2886 5.97927 18.6437 6.07766 18.0206 6.18697L17.7692 6.2307C17.6708 6.24163 17.5943 6.29629 17.5396 6.36188C17.4849 6.4384 17.4631 6.54771 17.4849 6.65703C17.5287 6.87566 17.638 6.97404 17.8566 6.99591C17.9659 6.97404 18.0862 6.95218 18.1955 6.93032C18.4469 6.88659 18.7202 6.83193 18.9826 6.81007C20.0757 6.72262 21.1689 6.6461 22.273 6.55864C23.1475 6.49306 24.0111 6.42747 24.8856 6.36188C25.5087 6.31815 26.1427 6.24163 26.7549 6.17604C26.8861 6.16511 26.9954 6.11045 27.061 6.023C27.1156 5.94648 27.1484 5.84809 27.1266 5.72785C27.0938 5.45456 26.8861 5.3999 26.7221 5.3999L26.7439 5.41083Z" fill="#303440"/>
<path d="M18.01 9.44505C19.5622 9.292 21.2129 9.1171 22.8854 8.96406C23.6288 8.89847 24.383 8.83288 25.1264 8.77822C25.673 8.7345 26.2086 8.69077 26.7552 8.64704C27.0066 8.62518 27.1378 8.494 27.1487 8.26444C27.1487 8.14419 27.1159 8.04581 27.0503 7.98022C26.9847 7.91463 26.8754 7.88184 26.7442 7.88184C26.7224 7.88184 26.7005 7.88184 26.6787 7.88184L25.0389 8.00208C23.5413 8.1114 21.989 8.22071 20.4695 8.34096C19.6934 8.40655 18.9173 8.5268 18.1521 8.63611L17.846 8.67984C17.7148 8.7017 17.6164 8.75636 17.5508 8.83288C17.4962 8.9094 17.4743 9.01871 17.4962 9.13896C17.5508 9.44504 17.846 9.45598 18.01 9.44505Z" fill="#303440"/>
<path d="M18.0537 11.9042L18.5128 11.8387C19.2671 11.7403 20.0433 11.631 20.8085 11.5654C22.1093 11.4561 23.443 11.3577 24.7219 11.2702C25.3778 11.2265 26.0337 11.1718 26.6787 11.1281C27.1706 11.0953 27.1488 10.8002 27.1488 10.7018C27.1488 10.5815 27.105 10.4941 27.0394 10.4504C26.9848 10.4066 26.8973 10.3848 26.7989 10.3848C26.7552 10.3848 26.7006 10.3848 26.6459 10.3957C26.0556 10.4394 25.4653 10.4722 24.875 10.5159C23.443 10.6034 21.9563 10.7018 20.4914 10.822C19.7262 10.8876 18.9392 10.9969 18.1849 11.1062L17.9007 11.15C17.7367 11.1718 17.6165 11.2374 17.5509 11.3249C17.4962 11.4014 17.4853 11.5107 17.5071 11.631C17.529 11.7184 17.5837 11.9808 18.0537 11.9152V11.9042Z" fill="#303440"/>
<path d="M13.3858 3.65128C12.2598 3.50917 11.112 3.41078 10.0079 3.32333L9.80023 3.30147C8.45565 3.19215 7.08921 3.09377 5.75556 2.99539L5.13246 2.95166C5.13246 2.95166 5.08874 2.95166 5.06687 2.95166C4.9357 2.95166 4.84824 2.98445 4.78266 3.03911C4.70613 3.1047 4.67334 3.22495 4.67334 3.37799C4.67334 5.81572 4.67334 8.25345 4.67334 10.6803C4.67334 10.9535 4.80452 11.0957 5.07781 11.1175C5.7009 11.1612 6.31307 11.2159 6.93617 11.2596C7.9528 11.3361 8.9913 11.4127 10.0189 11.5001C11.3744 11.6204 12.708 11.7734 13.7246 11.8937C13.9542 11.9155 14.1073 11.8937 14.1947 11.8171C14.2822 11.7406 14.315 11.6094 14.315 11.4017V7.85992C14.315 7.5429 14.315 7.21496 14.315 6.89794C14.315 6.17646 14.315 5.42219 14.315 4.68977C14.3222 4.07761 14.0125 3.73144 13.3858 3.65128ZM13.5279 10.9973L5.44948 10.407V3.78246L13.5279 4.37276V10.9863V10.9973Z" fill="#303440"/>
<path d="M7.08929 14.2769C7.53749 14.3097 7.98568 14.3316 8.4448 14.3644C9.13349 14.4081 9.84404 14.4518 10.5437 14.5065C11.3307 14.5721 12.1287 14.6705 12.9049 14.7688C13.2219 14.8126 13.5389 14.8454 13.8559 14.8781C13.9871 14.9 14.1073 14.8672 14.1948 14.7907C14.2822 14.7142 14.326 14.583 14.326 14.43C14.315 14.2551 14.1948 14.1457 13.9871 14.1129C13.7903 14.0801 13.6045 14.0583 13.4187 14.0255C12.9595 13.949 12.4895 13.8724 12.0194 13.8397C10.3032 13.6975 8.55412 13.5664 6.85973 13.4461L5.13255 13.3149C5.13255 13.3149 5.08882 13.3149 5.07789 13.3149C4.90299 13.3149 4.71715 13.3805 4.68436 13.6429C4.67343 13.7631 4.68436 13.8615 4.74995 13.938C4.81554 14.0146 4.92485 14.0692 5.05603 14.0801C5.61354 14.1457 6.35688 14.2113 7.11116 14.2769H7.08929Z" fill="#303440"/>
<path d="M5.04462 16.5504C5.70051 16.6269 6.30174 16.6815 6.91391 16.7362C7.59167 16.7909 8.26942 16.8237 8.93624 16.8674C10.5541 16.9548 12.2266 17.0532 13.8554 17.3484C13.9757 17.3702 14.085 17.3484 14.1615 17.2828C14.2599 17.1953 14.3146 17.0641 14.3036 16.8892C14.2927 16.7253 14.1724 16.616 13.9866 16.5941C13.8554 16.5722 13.7243 16.5504 13.5931 16.5176C13.2433 16.452 12.8935 16.3864 12.5436 16.3645C10.4557 16.1896 8.37874 16.0366 6.29081 15.8726L5.11021 15.7852C5.11021 15.7852 5.07741 15.7852 5.05555 15.7852C4.82599 15.7852 4.68388 15.9054 4.66201 16.124C4.64015 16.3755 4.77133 16.5285 5.04462 16.5613V16.5504Z" fill="#303440"/>
<path d="M13.9433 19.054L13.7246 19.0212C13.1343 18.9228 12.5331 18.8244 11.9428 18.7698C10.3577 18.6495 8.75078 18.5402 7.18757 18.4309C6.52074 18.3871 5.84299 18.3434 5.17617 18.2888C5.17617 18.2888 5.06685 18.2778 5.02313 18.2778C4.91381 18.2778 4.83729 18.2997 4.78263 18.3434C4.71704 18.3871 4.68425 18.4637 4.66238 18.573C4.65145 18.6932 4.66238 18.8025 4.72797 18.8791C4.79356 18.9665 4.91381 19.0102 5.05592 19.0321C5.6025 19.0758 6.16 19.1196 6.70658 19.1633C7.48272 19.2179 8.26979 19.2835 9.04593 19.3491C10.5763 19.4912 12.0849 19.6443 13.7684 19.8192C14.0635 19.852 14.2493 19.7536 14.2931 19.535C14.3149 19.4147 14.304 19.3163 14.2493 19.2398C14.1837 19.1524 14.0744 19.0868 13.9323 19.0649L13.9433 19.054Z" fill="#303440"/>
</g>
<defs>
<clipPath id="clip0_5506_125140">
<rect width="30.3897" height="23.47" fill="white" transform="translate(0.705078)"/>
</clipPath>
</defs>
</svg>
