<svg width="55" height="55" viewBox="0 0 55 55" fill="none" xmlns="http://www.w3.org/2000/svg">
<circle cx="27.5" cy="27.5" r="27.5" fill="white"/>
<circle cx="27.5" cy="27.5" r="26.96" stroke="#30333F" stroke-opacity="0.5" stroke-width="1.08"/>
<path d="M34.8814 14.4998C34.8568 14.2248 34.6353 14.0002 34.3592 14.0002L24.4529 14C24.1768 14 23.9553 14.2246 23.9307 14.4996C23.6956 17.1319 21.6213 19.2348 19.0021 19.5141C18.7251 19.5436 18.503 19.7741 18.5125 20.0524C18.8054 28.6705 20.4281 34.9102 29.4173 39.8422C29.4177 39.8424 29.418 39.8428 29.4181 39.8433L29.4182 39.8436C29.4183 39.8446 29.4194 39.8451 29.4203 39.8446V39.8446C29.4207 39.8444 29.4212 39.8444 29.4217 39.8446V39.8446C29.4225 39.8451 29.4236 39.8446 29.4238 39.8436L29.4239 39.8433C29.424 39.8428 29.4243 39.8424 29.4247 39.8422C38.4127 34.9109 40.0361 28.6725 40.3293 20.0564C40.3388 19.777 40.1152 19.5461 39.8371 19.5178C37.205 19.2498 35.1173 17.1413 34.8814 14.4998Z" stroke="#30333F" stroke-width="1.02" stroke-linecap="round"/>
<rect x="17.6667" y="31.4663" width="8.299" height="2.19224" rx="1.09612" transform="rotate(45 17.6667 31.4663)" stroke="#30333F" stroke-width="1.02" stroke-linecap="round"/>
<path fill-rule="evenodd" clip-rule="evenodd" d="M27.2223 22.8327C27.1065 22.8519 27.0011 22.9113 26.9246 23.0004L18.914 32.336C18.7438 32.5344 18.7551 32.8304 18.9399 33.0152L19.9946 34.0699C20.0048 34.0583 20.0155 34.047 20.0266 34.0359L29.3228 24.7397C29.6157 24.4468 30.0906 24.4468 30.3835 24.7397C30.6763 25.0326 30.6763 25.5074 30.3835 25.8003L21.0872 35.0966C21.0761 35.1076 21.0648 35.1183 21.0532 35.1285L22.1286 36.2039C22.3134 36.3887 22.6094 36.4 22.8077 36.2298L32.1434 28.2191C32.2325 28.1427 32.2919 28.0373 32.3111 27.9215L33.2081 22.5107C33.2642 22.1726 32.9712 21.8796 32.6331 21.9356L27.2223 22.8327Z" fill="#FF9975"/>
<path d="M13.6602 37.6032C13.7671 37.4963 13.9296 37.4678 14.0665 37.5321L15.1783 38.0537C15.216 38.0714 15.2502 38.0955 15.2797 38.1249L16.8903 39.7355C16.9201 39.7653 16.9445 39.8002 16.9622 39.8385L17.4697 40.9342C17.5329 41.0708 17.5042 41.2324 17.3977 41.3389L16.8418 41.8949C16.7016 42.0351 16.4743 42.0351 16.3341 41.8949L13.1051 38.6659C12.965 38.5257 12.965 38.2984 13.1051 38.1582L13.6602 37.6032Z" stroke="#30333F" stroke-width="1.02" stroke-linecap="round"/>
<rect x="18.1987" y="35.0986" width="2.40836" height="4.20446" transform="rotate(45 18.1987 35.0986)" stroke="#30333F" stroke-width="1.02" stroke-linecap="round"/>
</svg>
