<svg width="60" height="60" viewBox="0 0 60 60" fill="none" xmlns="http://www.w3.org/2000/svg">
<rect width="60" height="60" fill="white"/>
<path d="M26.3001 12.8626C28.1421 10.3804 31.8576 10.3804 33.6997 12.8626C34.7987 14.3435 36.675 15.0264 38.4688 14.5984C41.4754 13.881 44.3216 16.2693 44.1372 19.3548C44.0272 21.1957 45.0255 22.9248 46.6748 23.75C49.4391 25.1331 50.0843 28.7921 47.9597 31.0372C46.6921 32.3767 46.3454 34.343 47.0784 36.0353C48.307 38.8716 46.4493 42.0893 43.3786 42.4435C41.5466 42.6549 40.0171 43.9383 39.4908 45.7058C38.6088 48.6683 35.1174 49.9391 32.5375 48.2366C30.9982 47.2209 29.0015 47.2209 27.4623 48.2366C24.8824 49.9391 21.391 48.6683 20.5089 45.7058C19.9827 43.9383 18.4532 42.6549 16.6211 42.4435C13.5505 42.0893 11.6927 38.8716 12.9213 36.0353C13.6543 34.343 13.3076 32.3767 12.04 31.0372C9.91544 28.7921 10.5606 25.1331 13.3249 23.75C14.9742 22.9248 15.9726 21.1957 15.8625 19.3548C15.6781 16.2693 18.5244 13.881 21.531 14.5984C23.3248 15.0264 25.201 14.3435 26.3001 12.8626Z" stroke="#30333F" stroke-width="1.5" stroke-linejoin="round"/>
<circle cx="29.9998" cy="30.0008" r="9.53988" fill="#FF9975"/>
<path d="M25.2314 30.2973L28.212 33.2779L34.7689 26.7214" stroke="#30333F" stroke-width="1.5" stroke-linecap="round" stroke-linejoin="round"/>
<path d="M42.9671 33.4489C44.8861 26.2872 40.636 18.9258 33.4743 17.0068C26.3126 15.0879 18.9512 19.338 17.0322 26.4997C15.1132 33.6614 19.3633 41.0228 26.5251 42.9418C30.3068 43.9551 34.1443 43.2482 37.2067 41.3008M39.699 39.2597C40.3737 38.5561 40.9759 37.7746 41.4898 36.924" stroke="#30333F" stroke-width="1.5" stroke-linecap="round"/>
</svg>
