<svg width="55" height="55" viewBox="0 0 55 55" fill="none" xmlns="http://www.w3.org/2000/svg">
<circle cx="27.5" cy="27.5" r="27.5" fill="white"/>
<circle cx="27.5" cy="27.5" r="26.9608" stroke="#30333F" stroke-opacity="0.5" stroke-width="1.07843"/>
<path d="M20.2683 37.4508V36.9408H20.2558L20.2432 36.9414C18.9362 37.0057 17.9088 36.9284 17.1503 36.7376C16.3855 36.5451 15.9569 36.2539 15.7497 35.9431L15.7497 35.9431C15.6109 35.7348 15.566 35.4736 15.5827 35.2271C15.5909 35.1061 15.6133 35.0017 15.6378 34.9269C15.6504 34.8884 15.6606 34.8665 15.6653 34.857C16.0477 34.4528 16.0189 33.9117 15.9516 33.5688C15.8781 33.1949 15.7226 32.8618 15.6506 32.7174L15.59 32.5961L15.4771 32.5208C15.365 32.4461 15.3369 32.3819 15.3291 32.3494C15.3211 32.3166 15.318 32.2506 15.3777 32.1431L15.5645 31.8068L15.2925 31.5348C15.1574 31.3997 15.0872 31.3242 15.0421 31.238C14.983 31.1023 14.9632 30.9258 14.9758 30.7445C14.982 30.6554 14.9955 30.5748 15.0105 30.5113C15.0238 30.4553 15.0352 30.4254 15.0378 30.4185C15.0384 30.4168 15.0386 30.4165 15.0381 30.4174L15.0918 30.3098V30.1895C15.0918 29.8621 14.8617 29.6715 14.7471 29.5941C14.6148 29.5047 14.4609 29.4448 14.3348 29.4038C14.076 29.3197 13.7904 29.2709 13.6595 29.2491L13.6484 29.2472C13.6415 29.2407 13.6332 29.2318 13.6239 29.2203C13.5791 29.1643 13.528 29.063 13.5149 28.9187L13.515 28.9187L13.5139 28.9084C13.4952 28.7404 13.5422 28.4945 13.6768 28.1768C13.8075 27.8684 14.0001 27.5404 14.2116 27.227C14.5541 26.7196 14.9095 26.3012 15.0948 26.083C15.1234 26.0493 15.1479 26.0204 15.1678 25.9967C15.7079 25.5181 15.9084 25.0392 15.8897 24.5911C15.8809 24.379 15.8233 24.2089 15.7779 24.0963C15.7669 24.069 15.7564 24.0446 15.7479 24.0253V23.672H15.748L15.7479 23.6648C15.7069 20.7933 17.3113 17.8906 19.974 16.1842C22.1559 14.7961 25.3435 13.6722 28.8686 15.3565C27.2249 16.7823 26.1884 18.8909 26.1884 21.2221C26.1884 22.2166 26.3874 23.2039 26.7434 24.147L25.4322 26.2925L25.4322 26.2926C25.0714 26.883 25.1696 27.5444 25.5376 27.9961C25.9036 28.4452 26.528 28.6811 27.1885 28.4924L27.2041 28.4879L27.2194 28.4825L29.548 27.6538C30.5781 28.3706 31.7406 28.8092 32.948 28.9703C32.9174 29.027 32.8857 29.0871 32.8534 29.1504C32.6097 29.6284 32.3313 30.2863 32.1291 31.1502C31.7237 32.8816 31.6334 35.4003 32.6839 38.9093L32.6883 38.9241L32.6936 38.9386L33.1724 38.7631C32.6936 38.9386 32.6937 38.9388 32.6937 38.9389L32.6938 38.9392L32.6941 38.9398L32.6947 38.9415L32.6965 38.9464L32.7023 38.9616C32.7072 38.9743 32.714 38.9918 32.723 39.0139C32.7409 39.058 32.7672 39.1204 32.8024 39.1987C32.8728 39.355 32.9792 39.5749 33.1267 39.838C33.3812 40.2922 33.7598 40.8784 34.2889 41.49H21.7984C21.8366 40.9632 21.866 40.2437 21.8101 39.5427C21.7784 39.1447 21.7182 38.7383 21.61 38.3693C21.5047 38.0103 21.3438 37.6512 21.0872 37.3744C20.9246 37.1834 20.7489 37.0719 20.5944 37.01C20.517 36.9791 20.4479 36.9618 20.392 36.9522C20.3642 36.9474 20.3395 36.9446 20.3188 36.9429C20.3084 36.9421 20.299 36.9416 20.2905 36.9412L20.2786 36.9409L20.2733 36.9408L20.2707 36.9408L20.2695 36.9408L20.2689 36.9408C20.2686 36.9408 20.2683 36.9408 20.2683 37.4508Z" stroke="#30333F" stroke-width="1.02"/>
<path d="M34.004 14.6167C30.3296 14.6167 27.3551 17.5911 27.3551 21.2656C27.3551 22.3154 27.6175 23.3215 28.0548 24.24L26.4363 26.9084C26.2613 27.1708 26.5237 27.477 26.83 27.3895L29.7608 26.3833C34.0476 29.9265 40.6526 26.9083 40.6526 21.2654C40.6526 17.5914 37.6782 14.617 34.0036 14.617L34.004 14.6167ZM30.6796 22.6215C29.9358 22.6215 29.2798 22.0091 29.2798 21.2217C29.2798 20.478 29.8922 19.8219 30.6796 19.8219C31.4233 19.8219 32.0794 20.4343 32.0794 21.2217C32.0355 22.0091 31.4231 22.6215 30.6796 22.6215ZM34.004 22.6215C33.2603 22.6215 32.6042 22.0091 32.6042 21.2217C32.6042 20.478 33.2166 19.8219 34.004 19.8219C34.7477 19.8219 35.4038 20.4343 35.4038 21.2217C35.3599 22.0091 34.7475 22.6215 34.004 22.6215ZM37.2847 22.6215C36.541 22.6215 35.8849 22.0091 35.8849 21.2217C35.8849 20.478 36.4973 19.8219 37.2847 19.8219C38.0284 19.8219 38.6845 20.4343 38.6845 21.2217C38.6843 22.0091 38.0721 22.6215 37.2847 22.6215Z" fill="#FF9975"/>
</svg>
