<svg width="35" height="35" viewBox="0 0 35 35" fill="none" xmlns="http://www.w3.org/2000/svg">
<g clip-path="url(#clip0_6321_141749)">
<path d="M13.2931 19.6147C16.4874 18.4222 19.4688 18.9901 22.0952 21.148C22.7057 21.6591 23.1884 22.3263 23.7137 22.9368C24.026 23.2917 24.4661 23.3201 24.6649 22.9368C24.7926 22.6813 24.6933 22.4683 24.5513 22.2553C23.4581 20.6795 22.0242 19.5153 20.2638 18.7629C19.9089 18.6067 19.5256 18.479 19.1423 18.337C21.7971 16.7611 22.5495 13.9218 21.8681 11.6502C21.1582 9.26517 19.0287 7.64672 16.4874 7.56154C14.1166 7.47636 11.8451 9.02382 11.0074 11.2953C10.5247 12.6298 10.5247 13.9643 11.0074 15.2847C11.4901 16.605 12.3845 17.5988 13.6481 18.337C11.7031 18.9333 10.0846 19.9554 8.80691 21.4745C7.52919 22.9794 6.77675 24.7398 6.45022 26.7416C6.32245 26.6564 6.26566 26.5286 6.18048 26.4434C2.77322 22.8516 1.43871 18.5925 2.30472 13.7088C3.44048 7.2776 9.06246 2.33707 15.5788 2.05314C20.2922 1.84018 24.2674 3.51542 27.3339 7.12143C30.0455 10.3015 31.1103 14.0495 30.6134 18.2092C30.5282 18.9475 30.3294 19.6573 30.1733 20.3814C30.0739 20.8357 30.4288 21.2332 30.8121 21.0628C30.9825 20.9918 31.1529 20.7789 31.2096 20.5943C32.0473 17.6413 32.0189 14.6884 31.0961 11.7638C28.5548 3.78516 20.3206 -0.72946 12.2426 1.58464C6.33665 3.25987 2.73063 7.2776 1.31094 13.2261C1.14058 13.9501 1.08379 14.7026 0.970215 15.4408V17.3006C0.984412 17.4142 1.01281 17.5136 1.027 17.6271C1.32514 21.0486 2.56027 24.0867 4.88856 26.6138C8.77852 30.8303 13.6055 32.4487 19.27 31.5117C19.9657 31.3982 20.6471 31.171 21.3286 30.9864C21.6551 30.8871 21.7829 30.5889 21.6977 30.305C21.6125 30.0353 21.3286 29.8933 21.0305 29.9643C20.9595 29.9785 20.8885 30.0069 20.8033 30.0353C16.3881 31.3698 12.2426 30.7877 8.3952 28.2748C7.31624 27.565 7.41561 27.9199 7.64276 26.557C8.22484 23.2065 10.0988 20.8215 13.2931 19.6289V19.6147ZM11.7315 13.2261C11.7741 10.6565 13.8894 8.58371 16.4307 8.62631C19.0571 8.6689 21.0872 10.77 21.0447 13.3965C21.0021 15.9661 18.8583 18.0105 16.2461 17.9537C13.719 17.9111 11.6889 15.7674 11.7315 13.2119V13.2261Z" fill="#30333F"/>
<path d="M34.5742 30.007C34.1767 29.6095 34.049 29.212 34.0206 28.6299C33.978 27.8207 34.1767 27.2102 34.7872 26.7133C35.0285 26.5145 35.0427 26.259 34.9008 25.9893C34.631 25.4924 34.3471 25.0097 34.0632 24.527C33.8928 24.2288 33.6231 24.1579 33.2965 24.243C33.183 24.2714 33.0552 24.2856 32.9416 24.3282C32.4731 24.4844 32.1182 24.3708 31.6639 24.1437C30.9114 23.7603 30.4146 23.2776 30.301 22.4258C30.2726 22.1845 30.0738 22.0283 29.8325 22.0283C29.2078 22.0283 28.569 22.0283 27.9443 22.0283C27.6887 22.0283 27.5468 22.1845 27.4616 22.4258C27.3622 22.7382 27.277 23.0647 27.1493 23.377C27.0925 23.5048 26.9789 23.6326 26.8653 23.7036C26.4962 23.9449 26.1129 24.1579 25.7154 24.3708C25.616 24.4276 25.474 24.4702 25.3605 24.4418C25.0481 24.3992 24.7358 24.314 24.4235 24.243C24.1679 24.1863 23.9124 24.2004 23.7704 24.4418C23.4439 24.9813 23.1031 25.535 22.8192 26.1028C22.7482 26.2448 22.8334 26.472 22.9044 26.6565C22.947 26.7843 23.0747 26.8837 23.1883 26.983C23.6142 27.338 23.6994 27.7639 23.7278 28.3176C23.7704 29.141 23.5716 29.7514 22.947 30.2625C22.734 30.4329 22.7056 30.6884 22.8334 30.9298C23.0889 31.3983 23.3587 31.8668 23.6284 32.3495C23.8414 32.747 24.1679 32.8464 24.5796 32.7044C25.1759 32.4914 25.758 32.4631 26.2407 32.9741C26.2549 32.9883 26.2832 33.0025 26.2974 33.0025C27.0073 33.1729 27.277 33.6982 27.3906 34.3654C27.4474 34.7204 27.6603 34.9333 28.0153 35.0043H29.7473C30.1164 34.9333 30.3152 34.692 30.372 34.337C30.3862 34.2377 30.4429 34.1525 30.4571 34.0531C30.5423 33.5988 30.8121 33.3717 31.2096 33.1161C31.9194 32.6476 32.6009 32.4347 33.4101 32.7612C33.6656 32.8606 33.8928 32.7328 34.0348 32.5056C34.2903 32.1081 34.56 31.7106 34.773 31.2847C35.1137 30.6316 35.0995 30.5749 34.5742 30.0496V30.007ZM33.3533 31.5403C33.3533 31.5403 33.1829 31.5686 33.112 31.5403C32.3737 31.2705 31.6923 31.2847 31.0818 31.8952C30.8547 32.1223 30.4855 32.2217 30.1732 32.3495C29.9177 32.4489 29.7615 32.605 29.6905 32.8464C29.6195 33.1161 29.5201 33.3717 29.4492 33.6414C29.4066 33.8118 29.3214 33.8827 29.1226 33.8969C28.3844 33.9395 28.356 33.9537 28.1714 33.2439C28.0295 32.7186 27.7881 32.3921 27.2344 32.2075C26.8511 32.0797 26.4962 31.7958 26.1697 31.5545C25.9283 31.3699 25.7154 31.2705 25.4172 31.3699C25.1901 31.4409 24.9345 31.4551 24.7074 31.5403C24.466 31.6254 24.3525 31.5403 24.2247 31.3415C23.884 30.7736 23.8698 30.7736 24.3241 30.2625C24.4235 30.149 24.5654 30.0496 24.6364 29.9218C24.7216 29.7372 24.8068 29.5243 24.8068 29.3255C24.8352 28.7577 24.8352 28.1756 24.8068 27.6077C24.8068 27.3948 24.7216 27.1676 24.6222 26.983C24.5228 26.7985 24.3241 26.6565 24.1821 26.4862C24.0827 26.3584 23.9266 26.188 23.955 26.0886C24.0543 25.8189 24.2389 25.5917 24.3809 25.3504C24.3951 25.322 24.466 25.3362 24.4944 25.3362C24.821 25.4072 25.1333 25.4782 25.4456 25.5492C25.7012 25.6201 25.8999 25.5208 26.1271 25.3788C26.5814 25.0807 27.0357 24.7967 27.5184 24.5696C27.7881 24.4418 27.9585 24.2998 28.0295 24.0159C28.0721 23.8739 28.1147 23.7461 28.1572 23.6042C28.2282 23.4054 28.2566 23.0931 28.3844 23.0505C28.6399 22.9653 28.9523 23.0079 29.2362 23.0221C29.293 23.0221 29.364 23.1215 29.3924 23.1925C29.4918 23.4906 29.5485 23.7887 29.6905 24.0727C29.7757 24.2572 29.9461 24.4134 30.1164 24.527C30.5849 24.8251 31.0818 25.1091 31.5787 25.3646C31.7633 25.464 32.0046 25.535 32.2176 25.5208C32.4589 25.5208 32.7003 25.4498 32.9274 25.3646C33.2113 25.251 33.3675 25.3646 33.4953 25.6201C33.7934 26.1454 33.8076 26.1312 33.3959 26.5855C33.2823 26.7133 33.1262 26.8269 33.0552 26.983C32.9558 27.1676 32.8848 27.3806 32.8848 27.5793C32.8564 28.1472 32.8564 28.7293 32.8848 29.2971C32.8848 29.5101 32.97 29.7372 33.0694 29.9218C33.1546 30.0922 33.3391 30.2199 33.4669 30.3761C33.5805 30.5039 33.765 30.6884 33.7366 30.7878C33.6514 31.0576 33.4811 31.2989 33.3107 31.5403H33.3533Z" fill="#30333F"/>
<path d="M28.9235 25.8047C27.4187 25.8047 26.2261 26.9546 26.2119 28.4453C26.2119 29.9076 27.4045 31.1143 28.8667 31.1143C30.3148 31.1143 31.5216 29.936 31.5216 28.4879C31.5216 27.0256 30.3574 25.8189 28.9235 25.8047ZM28.8667 30.0496C28.0007 30.0496 27.2767 29.3255 27.2767 28.4737C27.2767 27.5935 27.9865 26.8695 28.8809 26.8695C29.7469 26.8695 30.471 27.5793 30.471 28.4453C30.471 29.3255 29.7469 30.0496 28.8667 30.0496Z" fill="#30333F"/>
<path d="M11.717 13.2406C11.7596 10.6709 13.8749 8.59819 16.4161 8.64078C19.0426 8.68337 21.0727 10.7845 21.0301 13.4109C20.9876 15.9806 18.8438 18.0249 16.2316 17.9682C13.7045 17.9256 11.6744 15.7818 11.717 13.2264V13.2406Z" fill="#FF9975"/>
<path d="M28.8664 30.0495C28.0004 30.0495 27.2764 29.3255 27.2764 28.4736C27.2764 27.5934 27.9862 26.8694 28.8806 26.8694C29.7466 26.8694 30.4707 27.5792 30.4707 28.4452C30.4707 29.3255 29.7466 30.0495 28.8664 30.0495Z" fill="#FF9975"/>
</g>
<defs>
<clipPath id="clip0_6321_141749">
<rect width="34.03" height="34.0016" fill="white" transform="translate(0.970215 0.974121)"/>
</clipPath>
</defs>
</svg>
