<svg width="23" height="30" viewBox="0 0 23 30" fill="none" xmlns="http://www.w3.org/2000/svg">
<g clip-path="url(#clip0_6332_28834)">
<path d="M15.024 25.9424H15.0067C13.8251 25.9424 12.713 25.4733 11.8789 24.6218C11.0275 23.7704 10.5757 22.6235 10.5757 21.4072C10.5931 18.9919 12.5913 17.0283 15.024 17.0283C16.223 17.0283 17.3351 17.4975 18.1692 18.3489C19.0033 19.183 19.455 20.3125 19.455 21.5114C19.455 23.9615 17.4394 25.9424 14.9893 25.9424H15.024Z" fill="#FF9975"/>
<path d="M11.462 27.2282C11.3403 27.1935 11.1839 27.1935 11.0449 27.1935H7.96929C6.44017 27.1935 4.91104 27.1935 3.36454 27.1935C3.1734 27.1935 2.94751 27.1935 2.73899 27.1414C1.80066 26.9328 1.20986 26.1509 1.20986 25.1257V4.16972C1.20986 2.84911 2.00918 2.04979 3.34716 2.04979C5.67561 2.04979 8.02142 2.04979 10.3499 2.04979H14.5028V5.68147C14.5028 6.94995 15.2326 7.66238 16.4837 7.66238H17.0572C17.9434 7.66238 18.8469 7.66238 19.7331 7.66238C19.8721 7.66238 19.959 7.69713 20.0285 7.74926C20.098 7.81877 20.1154 7.90565 20.1154 8.02728C20.1154 8.07941 20.1154 8.14892 20.1154 8.20105C20.1154 8.25318 20.1154 8.28793 20.1154 8.34006C20.1154 9.53903 20.1154 10.738 20.1154 11.9544V14.4218C20.1154 15.0821 20.1154 15.7598 20.1154 16.4201C20.1154 16.6286 20.1849 16.8024 20.3239 16.9066C20.4456 17.0109 20.5846 17.0456 20.741 17.0109C21.0364 16.9588 21.1754 16.7502 21.1754 16.368V13.1186C21.1754 11.4852 21.1754 9.86919 21.1754 8.2358C21.1754 7.33223 20.8626 6.58504 20.2197 5.94211L20.0807 5.8031C18.8296 4.552 17.5263 3.24877 16.2752 1.96291C15.6149 1.28523 14.8156 0.955078 13.8599 0.955078C11.9659 0.955078 10.0545 0.955078 8.17781 0.955078H7.72602C6.2664 0.955078 4.80678 0.955078 3.34716 0.955078C3.03439 0.955078 2.77374 0.972455 2.54785 1.02458C1.12298 1.33736 0.149902 2.50158 0.149902 3.92645C0.149902 9.45215 0.149902 15.0995 0.149902 20.5383V25.2821C0.149902 25.4385 0.149902 25.5949 0.184655 25.7339C0.462678 27.2456 1.6964 28.2534 3.24291 28.2534C5.22382 28.2534 7.22211 28.2534 9.16827 28.2534H11.1492C11.2534 28.2534 11.3577 28.2534 11.4446 28.2187C11.6705 28.1492 11.8095 27.958 11.8095 27.7148C11.8095 27.4541 11.6705 27.263 11.4446 27.2109L11.462 27.2282ZM15.5802 3.09238V2.88386L15.7192 3.02287C16.7096 3.99595 17.7175 4.98641 18.7253 5.97687L19.3161 6.55029H17.7001C17.5263 6.55029 17.3352 6.55029 17.1614 6.55029C16.8834 6.55029 16.588 6.55029 16.31 6.55029C15.8756 6.55029 15.5802 6.27226 15.5802 5.85523C15.5802 5.19493 15.5802 4.51725 15.5802 3.85694C15.5802 3.59629 15.5802 3.33565 15.5802 3.075V3.09238Z" fill="#30333F"/>
<path d="M22.4266 26.3422L21.9922 25.8904C21.4362 25.3343 20.8801 24.7609 20.3067 24.2049C20.0982 23.9963 20.0461 23.8226 20.1677 23.5446C20.8628 21.859 20.6716 19.9303 19.6464 18.3838C18.6212 16.8373 16.9009 15.9163 15.059 15.8989C14.9895 15.8989 14.9026 15.8989 14.8331 15.9163C14.6767 15.9163 14.503 15.9337 14.3466 15.9684C12.8696 16.1422 11.549 16.9068 10.628 18.1231C9.72447 19.3221 9.34218 20.7817 9.5507 22.2413C9.81135 23.979 10.8192 25.456 12.3309 26.3074C13.8253 27.1588 15.6151 27.2457 17.2137 26.5681C17.3006 26.5333 17.3527 26.5159 17.4222 26.5159C17.5439 26.5159 17.6307 26.5854 17.735 26.6723C18.5864 27.5238 19.2815 28.2362 19.9592 28.8791C20.7064 29.6089 21.8011 29.6263 22.5135 28.9139C23.2259 28.2014 23.2086 27.0893 22.4614 26.3422H22.4266ZM15.0243 25.9251H15.0069C13.8253 25.9251 12.7132 25.456 11.8791 24.6045C11.0277 23.7531 10.5759 22.6062 10.5759 21.3899C10.5933 18.9746 12.5916 17.011 15.0243 17.011C16.2232 17.011 17.3353 17.4802 18.1694 18.3316C19.0035 19.1657 19.4553 20.2952 19.4553 21.4941C19.4553 23.9442 17.4396 25.9251 14.9895 25.9251H15.0243ZM21.8358 27.9929C21.7142 28.2188 21.4709 28.3578 21.2277 28.3578C21.1755 28.3578 21.1234 28.3578 21.0713 28.3404C20.9323 28.3057 20.8106 28.2362 20.7237 28.1493C20.1851 27.6106 19.6464 27.072 19.1077 26.5333L18.4822 25.8904L18.795 25.5776C19.0035 25.3691 19.212 25.1432 19.4726 24.8825L19.5595 24.7957L19.6117 24.8999C19.6117 24.8999 19.629 24.952 19.6464 24.9868C19.6812 25.0563 19.7159 25.1258 19.768 25.1779C20.1156 25.5255 20.4631 25.873 20.8106 26.2205C21.106 26.5159 21.4014 26.8113 21.6794 27.1067C21.9401 27.3674 22.0096 27.6801 21.8358 27.9755V27.9929Z" fill="#30333F"/>
<path d="M16.97 14.526C17.2654 14.4913 17.4566 14.248 17.4392 13.97C17.4218 13.5529 17.0743 13.4661 16.7963 13.4661C15.2671 13.4661 13.738 13.4661 12.2089 13.4661H4.78915C4.78915 13.4661 4.70226 13.4661 4.66751 13.4661C4.56325 13.4661 4.47637 13.4661 4.37211 13.4661C4.07671 13.4834 3.88557 13.7093 3.90295 14.0047C3.90295 14.4391 4.28523 14.526 4.58063 14.526H16.7963C16.7963 14.526 16.9179 14.526 16.97 14.526Z" fill="#30333F"/>
<path d="M16.9704 10.3381C16.8835 10.3381 16.7966 10.3381 16.7098 10.3381H16.675C13.304 10.3381 9.93295 10.3381 6.54455 10.3381C6.42291 10.3381 6.31866 10.3381 6.23177 10.3555C5.97113 10.4076 5.79736 10.5988 5.79736 10.8594C5.79736 11.1374 5.95375 11.346 6.23177 11.3981C6.33603 11.4155 6.45767 11.4155 6.5793 11.4155C9.95033 11.4155 13.3214 11.4155 16.675 11.4155H16.6924C16.7966 11.4155 16.9009 11.4155 17.0052 11.4155C17.2832 11.3633 17.4569 11.1722 17.4569 10.8942C17.4569 10.6162 17.2832 10.4076 16.9878 10.3555L16.9704 10.3381Z" fill="#30333F"/>
<path d="M4.56325 7.6623C5.32781 7.6623 6.09238 7.6623 6.85694 7.6623H7.84739C8.00378 7.6623 8.16017 7.6623 8.31656 7.6623H9.28964C9.93257 7.6623 10.5755 7.6623 11.2184 7.6623C11.4443 7.6623 11.6181 7.59279 11.7223 7.47116C11.8092 7.3669 11.8613 7.21051 11.8266 7.03675C11.7745 6.63709 11.3922 6.58496 11.1663 6.58496H4.58063C4.58063 6.58496 4.42424 6.58496 4.33736 6.60234C4.04196 6.67184 3.86819 6.91511 3.92032 7.21051C3.97245 7.50591 4.19834 7.6623 4.56325 7.6623Z" fill="#30333F"/>
<path d="M8.57807 17.4626C8.66495 17.3757 8.71708 17.2367 8.71708 17.0977C8.71708 16.7849 8.45643 16.5764 8.09153 16.5764C7.53548 16.5764 6.97944 16.5764 6.44077 16.5764C5.79784 16.5764 5.17229 16.5764 4.52936 16.5764C4.32084 16.5764 4.14708 16.6285 4.04282 16.7502C3.95594 16.8371 3.90381 16.9761 3.90381 17.1151C3.90381 17.4452 4.1297 17.6364 4.51198 17.6364C4.92902 17.6364 5.32868 17.6364 5.74571 17.6364H6.84042C7.27484 17.6364 7.69187 17.6364 8.1089 17.6364C8.30004 17.6364 8.47381 17.5669 8.57807 17.4626Z" fill="#30333F"/>
<path d="M4.51129 23.892C5.50175 23.892 6.47483 23.892 7.46529 23.892C7.83019 23.892 8.07346 23.6835 8.07346 23.3534C8.07346 23.0232 7.86494 22.8147 7.46529 22.8147C7.11776 22.8147 6.78761 22.8147 6.44008 22.8147H5.57126C5.20635 22.8147 4.85882 22.8147 4.49392 22.8147C4.2854 22.8147 4.12901 22.8668 4.02475 22.9885C3.93787 23.0753 3.88574 23.2144 3.88574 23.3534C3.88574 23.6835 4.12901 23.892 4.49392 23.892H4.51129Z" fill="#30333F"/>
<path d="M4.51198 20.7641C5.24179 20.7641 5.98898 20.7641 6.82305 20.7641C7.03156 20.7641 7.20533 20.6946 7.32696 20.573C7.41385 20.4687 7.46598 20.3471 7.46598 20.2081C7.46598 19.8953 7.22271 19.6868 6.84042 19.6694C6.5624 19.6694 6.30176 19.6694 6.02373 19.6694H5.6762H5.32868C5.20704 19.6694 5.10278 19.6694 4.98115 19.6694C4.82476 19.6694 4.68575 19.6694 4.52936 19.6694C4.1297 19.6694 3.90381 19.878 3.90381 20.2255C3.90381 20.5556 4.14708 20.7468 4.52936 20.7641H4.51198Z" fill="#30333F"/>
<path d="M14.9721 23.4228C13.86 23.3186 13.1823 22.6583 13.078 21.5288C13.0433 21.1465 12.8521 20.938 12.5394 20.938C12.5394 20.938 12.5046 20.938 12.4872 20.938C12.1571 20.9554 11.9833 21.2334 12.0007 21.6157C12.1223 23.2143 13.2866 24.3785 14.8852 24.4828C15.0937 24.4828 15.2675 24.448 15.3891 24.3438C15.4934 24.2569 15.5455 24.1353 15.5455 23.9962C15.5629 23.6661 15.3544 23.4402 14.9547 23.4054L14.9721 23.4228Z" fill="#30333F"/>
<path d="M11.462 27.2282C11.3403 27.1935 11.1839 27.1935 11.0449 27.1935H7.96929C6.44017 27.1935 4.91104 27.1935 3.36454 27.1935C3.1734 27.1935 2.94751 27.1935 2.73899 27.1414C1.80066 26.9328 1.20986 26.1509 1.20986 25.1257V4.16972C1.20986 2.84911 2.00918 2.04979 3.34716 2.04979C5.67561 2.04979 8.02142 2.04979 10.3499 2.04979H14.5028V5.68147C14.5028 6.94995 15.2326 7.66238 16.4837 7.66238H17.0572C17.9434 7.66238 18.8469 7.66238 19.7331 7.66238C19.8721 7.66238 19.959 7.69713 20.0285 7.74926C20.098 7.81877 20.1154 7.90565 20.1154 8.02728C20.1154 8.07941 20.1154 8.14892 20.1154 8.20105C20.1154 8.25318 20.1154 8.28793 20.1154 8.34006C20.1154 9.53903 20.1154 10.738 20.1154 11.9544V14.4218C20.1154 15.0821 20.1154 15.7598 20.1154 16.4201C20.1154 16.6286 20.1849 16.8024 20.3239 16.9066C20.4456 17.0109 20.5846 17.0456 20.741 17.0109C21.0364 16.9588 21.1754 16.7502 21.1754 16.368V13.1186C21.1754 11.4852 21.1754 9.86919 21.1754 8.2358C21.1754 7.33223 20.8626 6.58504 20.2197 5.94211L20.0807 5.8031C18.8296 4.552 17.5263 3.24877 16.2752 1.96291C15.6149 1.28523 14.8156 0.955078 13.8599 0.955078C11.9659 0.955078 10.0545 0.955078 8.17781 0.955078H7.72602C6.2664 0.955078 4.80678 0.955078 3.34716 0.955078C3.03439 0.955078 2.77374 0.972455 2.54785 1.02458C1.12298 1.33736 0.149902 2.50158 0.149902 3.92645C0.149902 9.45215 0.149902 15.0995 0.149902 20.5383V25.2821C0.149902 25.4385 0.149902 25.5949 0.184655 25.7339C0.462678 27.2456 1.6964 28.2534 3.24291 28.2534C5.22382 28.2534 7.22211 28.2534 9.16827 28.2534H11.1492C11.2534 28.2534 11.3577 28.2534 11.4446 28.2187C11.6705 28.1492 11.8095 27.958 11.8095 27.7148C11.8095 27.4541 11.6705 27.263 11.4446 27.2109L11.462 27.2282ZM15.5802 3.09238V2.88386L15.7192 3.02287C16.7096 3.99595 17.7175 4.98641 18.7253 5.97687L19.3161 6.55029H17.7001C17.5263 6.55029 17.3352 6.55029 17.1614 6.55029C16.8834 6.55029 16.588 6.55029 16.31 6.55029C15.8756 6.55029 15.5802 6.27226 15.5802 5.85523C15.5802 5.19493 15.5802 4.51725 15.5802 3.85694C15.5802 3.59629 15.5802 3.33565 15.5802 3.075V3.09238Z" fill="#30333F"/>
<path d="M22.4266 26.3422L21.9922 25.8904C21.4362 25.3343 20.8801 24.7609 20.3067 24.2049C20.0982 23.9963 20.0461 23.8226 20.1677 23.5446C20.8628 21.859 20.6716 19.9303 19.6464 18.3838C18.6212 16.8373 16.9009 15.9163 15.059 15.8989C14.9895 15.8989 14.9026 15.8989 14.8331 15.9163C14.6767 15.9163 14.503 15.9337 14.3466 15.9684C12.8696 16.1422 11.549 16.9068 10.628 18.1231C9.72447 19.3221 9.34218 20.7817 9.5507 22.2413C9.81135 23.979 10.8192 25.456 12.3309 26.3074C13.8253 27.1588 15.6151 27.2457 17.2137 26.5681C17.3006 26.5333 17.3527 26.5159 17.4222 26.5159C17.5439 26.5159 17.6307 26.5854 17.735 26.6723C18.5864 27.5238 19.2815 28.2362 19.9592 28.8791C20.7064 29.6089 21.8011 29.6263 22.5135 28.9139C23.2259 28.2014 23.2086 27.0893 22.4614 26.3422H22.4266ZM15.0243 25.9251H15.0069C13.8253 25.9251 12.7132 25.456 11.8791 24.6045C11.0277 23.7531 10.5759 22.6062 10.5759 21.3899C10.5933 18.9746 12.5916 17.011 15.0243 17.011C16.2232 17.011 17.3353 17.4802 18.1694 18.3316C19.0035 19.1657 19.4553 20.2952 19.4553 21.4941C19.4553 23.9442 17.4396 25.9251 14.9895 25.9251H15.0243ZM21.8358 27.9929C21.7142 28.2188 21.4709 28.3578 21.2277 28.3578C21.1755 28.3578 21.1234 28.3578 21.0713 28.3404C20.9323 28.3057 20.8106 28.2362 20.7237 28.1493C20.1851 27.6106 19.6464 27.072 19.1077 26.5333L18.4822 25.8904L18.795 25.5776C19.0035 25.3691 19.212 25.1432 19.4726 24.8825L19.5595 24.7957L19.6117 24.8999C19.6117 24.8999 19.629 24.952 19.6464 24.9868C19.6812 25.0563 19.7159 25.1258 19.768 25.1779C20.1156 25.5255 20.4631 25.873 20.8106 26.2205C21.106 26.5159 21.4014 26.8113 21.6794 27.1067C21.9401 27.3674 22.0096 27.6801 21.8358 27.9755V27.9929Z" fill="#30333F"/>
<path d="M16.97 14.526C17.2654 14.4913 17.4566 14.248 17.4392 13.97C17.4218 13.5529 17.0743 13.4661 16.7963 13.4661C15.2671 13.4661 13.738 13.4661 12.2089 13.4661H4.78915C4.78915 13.4661 4.70226 13.4661 4.66751 13.4661C4.56325 13.4661 4.47637 13.4661 4.37211 13.4661C4.07671 13.4834 3.88557 13.7093 3.90295 14.0047C3.90295 14.4391 4.28523 14.526 4.58063 14.526H16.7963C16.7963 14.526 16.9179 14.526 16.97 14.526Z" fill="#30333F"/>
<path d="M16.9704 10.3381C16.8835 10.3381 16.7966 10.3381 16.7098 10.3381H16.675C13.304 10.3381 9.93295 10.3381 6.54455 10.3381C6.42291 10.3381 6.31866 10.3381 6.23177 10.3555C5.97113 10.4076 5.79736 10.5988 5.79736 10.8594C5.79736 11.1374 5.95375 11.346 6.23177 11.3981C6.33603 11.4155 6.45767 11.4155 6.5793 11.4155C9.95033 11.4155 13.3214 11.4155 16.675 11.4155H16.6924C16.7966 11.4155 16.9009 11.4155 17.0052 11.4155C17.2832 11.3633 17.4569 11.1722 17.4569 10.8942C17.4569 10.6162 17.2832 10.4076 16.9878 10.3555L16.9704 10.3381Z" fill="#30333F"/>
<path d="M4.56325 7.6623C5.32781 7.6623 6.09238 7.6623 6.85694 7.6623H7.84739C8.00378 7.6623 8.16017 7.6623 8.31656 7.6623H9.28964C9.93257 7.6623 10.5755 7.6623 11.2184 7.6623C11.4443 7.6623 11.6181 7.59279 11.7223 7.47116C11.8092 7.3669 11.8613 7.21051 11.8266 7.03675C11.7745 6.63709 11.3922 6.58496 11.1663 6.58496H4.58063C4.58063 6.58496 4.42424 6.58496 4.33736 6.60234C4.04196 6.67184 3.86819 6.91511 3.92032 7.21051C3.97245 7.50591 4.19834 7.6623 4.56325 7.6623Z" fill="#30333F"/>
<path d="M8.09153 16.5764C7.53548 16.5764 6.97944 16.5764 6.44077 16.5764C5.79784 16.5764 5.17229 16.5764 4.52936 16.5764C4.32084 16.5764 4.14708 16.6285 4.04282 16.7502C3.95594 16.8371 3.90381 16.9761 3.90381 17.1151C3.90381 17.4452 4.1297 17.6364 4.51198 17.6364C4.92902 17.6364 5.32868 17.6364 5.74571 17.6364H6.84042C7.27484 17.6364 7.69187 17.6364 8.1089 17.6364C8.30004 17.6364 8.47381 17.5669 8.57807 17.4626C8.66495 17.3757 8.71708 17.2367 8.71708 17.0977C8.71708 16.7849 8.45643 16.5764 8.09153 16.5764Z" fill="#30333F"/>
<path d="M4.51129 23.892C5.50175 23.892 6.47483 23.892 7.46529 23.892C7.83019 23.892 8.07346 23.6835 8.07346 23.3534C8.07346 23.0232 7.86494 22.8147 7.46529 22.8147C7.11776 22.8147 6.78761 22.8147 6.44008 22.8147H5.57126C5.20635 22.8147 4.85882 22.8147 4.49392 22.8147C4.2854 22.8147 4.12901 22.8668 4.02475 22.9885C3.93787 23.0753 3.88574 23.2144 3.88574 23.3534C3.88574 23.6835 4.12901 23.892 4.49392 23.892H4.51129Z" fill="#30333F"/>
<path d="M4.51198 20.7641C5.24179 20.7641 5.98898 20.7641 6.82305 20.7641C7.03156 20.7641 7.20533 20.6946 7.32696 20.573C7.41385 20.4687 7.46598 20.3471 7.46598 20.2081C7.46598 19.8953 7.22271 19.6868 6.84042 19.6694C6.5624 19.6694 6.30176 19.6694 6.02373 19.6694H5.6762H5.32868C5.20704 19.6694 5.10278 19.6694 4.98115 19.6694C4.82476 19.6694 4.68575 19.6694 4.52936 19.6694C4.1297 19.6694 3.90381 19.878 3.90381 20.2255C3.90381 20.5556 4.14708 20.7468 4.52936 20.7641H4.51198Z" fill="#30333F"/>
<path d="M14.9721 23.4228C13.86 23.3186 13.1823 22.6583 13.078 21.5288C13.0433 21.1465 12.8521 20.938 12.5394 20.938C12.5394 20.938 12.5046 20.938 12.4872 20.938C12.1571 20.9554 11.9833 21.2334 12.0007 21.6157C12.1223 23.2143 13.2866 24.3785 14.8852 24.4828C15.0937 24.4828 15.2675 24.448 15.3891 24.3438C15.4934 24.2569 15.5455 24.1353 15.5455 23.9962C15.5629 23.6661 15.3544 23.4402 14.9547 23.4054L14.9721 23.4228Z" fill="white"/>
</g>
<defs>
<clipPath id="clip0_6332_28834">
<rect width="22.85" height="28.48" fill="white" transform="translate(0.149902 0.955078)"/>
</clipPath>
</defs>
</svg>
